<svg xmlns="http://www.w3.org/2000/svg" viewBox="0 0 1098.96 508.49"><title>imagotype_small</title><path d="M1021.62,158.16a78.73,78.73,0,0,1,29.59,5.71,71.08,71.08,0,0,1,24.86,16.74,68.78,68.78,0,0,1,17.36,24.82A78.74,78.74,0,0,1,1099,235v40.17a74.29,74.29,0,0,1-6.12,30.13,78.57,78.57,0,0,1-16.57,24.42A76.55,76.55,0,0,1,1021.62,352,82.39,82.39,0,0,1,997,348.2a70.3,70.3,0,0,1-21.51-10.83V402a14.3,14.3,0,0,1-4.34,10.83,15.4,15.4,0,0,1-11.05,4.13,16.08,16.08,0,0,1-11.24-4.13A14,14,0,0,1,944.28,402V173.52c0-4.72,1.51-8.47,4.54-11.22a16,16,0,0,1,11.24-4.14,15.36,15.36,0,0,1,11.05,4.14c2.89,2.75,4.34,6.5,4.34,11.22Q995.58,158.16,1021.62,158.16ZM1068.18,235a45.31,45.31,0,0,0-3.55-17.33,49.72,49.72,0,0,0-9.87-15.37h.4q-13.82-13.38-33.54-13.39a44.62,44.62,0,0,0-32.75,13.39q-13.43,14.19-13.42,32.7v40.17a43.75,43.75,0,0,0,3.75,17.92,49.83,49.83,0,0,0,9.87,14.77,45.76,45.76,0,0,0,14.6,10.05,44,44,0,0,0,18,3.74,45.07,45.07,0,0,0,18.35-3.74,48.34,48.34,0,0,0,14.79-10.05,46.08,46.08,0,0,0,13.42-32.69Z" style="fill:#30364b"/><path d="M903.89,321.62a15.82,15.82,0,0,1,10.66,4.13,13.72,13.72,0,0,1,4.73,10.83q0,7.1-4.73,11.23A15.78,15.78,0,0,1,903.89,352H886.53A78.27,78.27,0,0,1,856.15,346a75.47,75.47,0,0,1-24.66-16.35,78.42,78.42,0,0,1-16.58-24.42,74.28,74.28,0,0,1-6.11-30.13V75.45q0-7.1,4.54-11.23a16.08,16.08,0,0,1,11.24-4.13,15.77,15.77,0,0,1,10.65,4.13Q840,68.36,840,75.45v82.71h50.9a15.38,15.38,0,0,1,11,4.14c2.89,2.75,4.34,6.5,4.34,11.22a14.84,14.84,0,0,1-15.39,15.36H840v86.26a46.08,46.08,0,0,0,13.42,32.69,48.1,48.1,0,0,0,14.79,10.05,45,45,0,0,0,18.35,3.74Z" style="fill:#30364b"/><path d="M707.11,158.56a79.67,79.67,0,0,1,29.4,5.51,65.75,65.75,0,0,1,24.27,16.54,67.27,67.27,0,0,1,17,24.42,76.71,76.71,0,0,1,5.53,28.75v42.54A74.41,74.41,0,0,1,761,329.89,78.43,78.43,0,0,1,736.71,346a74.47,74.47,0,0,1-29.6,5.91,77.52,77.52,0,0,1-30.58-6.11,68.76,68.76,0,0,1-24.66-17.53v83.11a9.23,9.23,0,0,1-3,7.09,11,11,0,0,1-14.6,0,9.27,9.27,0,0,1-3-7.09v-243a9.28,9.28,0,0,1,3-7.09,11.06,11.06,0,0,1,14.6,0,9.25,9.25,0,0,1,3,7.09v14.18a.91.91,0,0,1,.59-1,1.8,1.8,0,0,0,1-1Q675.54,158.56,707.11,158.56Zm56,75.22a52.91,52.91,0,0,0-4.34-20.87A60.14,60.14,0,0,0,747,194.79a54.4,54.4,0,0,0-39.86-16.54q-23.28,0-39.06,16.54a53.84,53.84,0,0,0-12,18.12,55,55,0,0,0-4.15,20.87v42.54a54.38,54.38,0,0,0,4.34,21.86,58.05,58.05,0,0,0,11.84,17.73,54.22,54.22,0,0,0,39.06,16.34,54.74,54.74,0,0,0,21.9-4.33,56.74,56.74,0,0,0,29.79-29.74,54.38,54.38,0,0,0,4.34-21.86Z" style="fill:#30364b"/><path d="M599.57,157.83a12.41,12.41,0,0,1,5.72,5.52,10.75,10.75,0,0,1,.59,7.88l-63.13,172.9q-2.37,6.71-9.87,6.7H520.26q-7.5,0-9.87-6.7l-62.74-172.9a10.75,10.75,0,0,1,.59-7.88,12.14,12.14,0,0,1,6.12-5.52,13,13,0,0,1,7.69.79,7.4,7.4,0,0,1,4.54,5.91L526.17,330l60.38-165.42a9.63,9.63,0,0,1,5.13-5.91A13.33,13.33,0,0,1,599.57,157.83Z" style="fill:#30364b"/><path d="M374.44,157.36a49.71,49.71,0,0,1,18.15,3.54,45.57,45.57,0,0,1,15.78,10.24,48.23,48.23,0,0,1,13.81,34.27V335.78c0,4.72-1.38,8.47-4.14,11.22a14.69,14.69,0,0,1-10.85,4.14q-11.46,0-15.39-9.06a64.34,64.34,0,0,1-33.94,9.06H339.71a65.13,65.13,0,0,1-25.25-4.92,62.74,62.74,0,0,1-20.52-13.59,65.48,65.48,0,0,1-13.81-20.48A62.62,62.62,0,0,1,275,286.94a64.14,64.14,0,0,1,4.74-24.82,62.52,62.52,0,0,1,13.81-20.48,64.41,64.41,0,0,1,20.91-14,65.13,65.13,0,0,1,25.25-4.92H380q5.52,0,8.68-3.15h-.39c1.83-1.84,2.76-4.86,2.76-9.06v-5.12c0-5.52-1.58-9.71-4.74-12.61q-4.33-4.73-11.83-4.72H304.2A15.62,15.62,0,0,1,293,183.74a14.57,14.57,0,0,1-4.53-11q0-7.09,4.53-11.23a16.06,16.06,0,0,1,11.25-4.13Zm6.7,153.6q9.86-9.45,9.87-24V252.67a20.74,20.74,0,0,1-5.13,1q-2.78.19-5.92.19H339.71q-14.2,0-23.87,9.46t-9.67,23.63a33.54,33.54,0,0,0,2.57,13.19,32.5,32.5,0,0,0,7.1,10.64,35.39,35.39,0,0,0,10.65,7.28,31.79,31.79,0,0,0,13.22,2.76h18.15a32.87,32.87,0,0,0,12.83-2.56A29.25,29.25,0,0,0,381.14,311Z" style="fill:#30364b"/><path d="M125,157.39h0V105a25,25,0,0,1,7.32-17.68l49-49a10,10,0,0,0,0-14.13L160.1,2.93a10,10,0,0,0-14.14,0l-49,49a75,75,0,0,0-22,53V157.4m0,0a100,100,0,0,0,.38,193.79L75,351.1v3.15h0v49.29a25,25,0,0,1-7.32,17.67l-49,49a10,10,0,0,0,0,14.14L39.9,505.56a10,10,0,0,0,14.14,0l49-49a74.5,74.5,0,0,0,22-53V354.25h0V351.1h0l-.44.11A100,100,0,0,0,125,157.4" style="fill:#5fc1c8"/><circle cx="100" cy="254.25" r="50" style="fill:#fff"/></svg>