<svg clip-rule="evenodd" fill-rule="evenodd" stroke-linejoin="round" stroke-miterlimit="1.41421" viewBox="0 0 1229 340" xmlns="http://www.w3.org/2000/svg"><g fill="#fff"><g fill-rule="nonzero"><path d="m922.77 202.48c3.341-.006 6.651.633 9.75 1.88 3.092 1.24 5.885 3.125 8.19 5.53 2.491 2.271 4.445 5.069 5.72 8.19 1.227 3.103 1.845 6.413 1.82 9.75v13.26c.031 3.416-.65 6.802-2 9.94-1.298 3.005-3.15 5.74-5.46 8.06-4.771 4.76-11.26 7.41-18 7.35-2.754.004-5.493-.414-8.12-1.24-2.552-.771-4.951-1.979-7.09-3.57v21.37c.052 1.338-.469 2.637-1.43 3.57-.982.923-2.293 1.416-3.64 1.37-1.364.039-2.69-.453-3.7-1.37-1-.911-1.55-2.218-1.5-3.57v-75.4c-.068-1.396.481-2.754 1.5-3.71 1.011-.915 2.338-1.402 3.7-1.36 1.346-.05 2.657.44 3.64 1.36.979.979 1.499 2.328 1.43 3.71 4.34-3.371 9.695-5.176 15.19-5.12zm15.34 25.35c-.012-1.965-.409-3.908-1.17-5.72-.758-1.878-1.86-3.597-3.25-5.07h.13c-2.932-2.907-6.922-4.503-11.05-4.42-4.038-.086-7.938 1.5-10.77 4.38-2.844 2.867-4.435 6.751-4.42 10.79v13.26c-.023 2.048.393 4.077 1.22 5.95.78 1.809 1.881 3.463 3.25 4.88 1.369 1.41 3.004 2.535 4.81 3.31 1.86.828 3.874 1.251 5.91 1.24 2.082.019 4.144-.404 6.05-1.24 1.816-.789 3.468-1.912 4.87-3.31 1.394-1.397 2.498-3.055 3.25-4.88.782-1.872 1.18-3.882 1.17-5.91z"/><path d="m1008.31 261.37c.07 1.405-.51 2.766-1.56 3.7-.92.862-2.12 1.35-3.38 1.37-2.52 0-4.2-1-5.07-3.12-3.368 2.15-7.306 3.237-11.3 3.12h-6.24c-2.855.02-5.684-.534-8.32-1.63-2.555-1.051-4.876-2.597-6.83-4.55-1.946-1.945-3.51-4.238-4.61-6.76-1.147-2.643-1.723-5.499-1.69-8.38v-37.57c-.065-1.408.508-2.772 1.56-3.71.958-.876 2.211-1.362 3.51-1.36 1.345-.048 2.656.442 3.64 1.36.979.979 1.499 2.328 1.43 3.71v37.57c-.015 1.499.296 2.983.91 4.35 1.198 2.678 3.332 4.829 6 6.05 1.371.613 2.858.924 4.36.91h6.28c2.9.019 5.688-1.132 7.73-3.19 2.135-1.946 3.343-4.711 3.32-7.6v-38.09c-.065-1.408.508-2.772 1.56-3.71 1.04-.91 2.39-1.396 3.77-1.36 1.26.012 2.47.498 3.38 1.36 1.05.938 1.62 2.302 1.56 3.71zm-27.56-68.37c-.981-.91-1.564-2.173-1.62-3.51-.057-1.284.384-2.542 1.23-3.51l4.81-4.68c.916-1.041 2.255-1.614 3.64-1.56 1.339.107 2.591.71 3.51 1.69.941.922 1.459 2.193 1.43 3.51.021 1.342-.55 2.626-1.56 3.51l-4.55 4.55c-.876 1.06-2.207 1.64-3.58 1.56-1.267-.057-2.46-.619-3.31-1.56z"/><path d="m1049.39 202.48c3.41.022 6.79.701 9.94 2 3.22 1.278 6.12 3.228 8.52 5.72 2.54 2.341 4.52 5.231 5.78 8.45 1.25 3.184 1.9 6.577 1.89 10v11.83c.01 3.423-.64 6.816-1.89 10-1.28 3.248-3.25 6.177-5.78 8.58v-.13c-2.45 2.351-5.31 4.223-8.45 5.52-3.16 1.331-6.57 2.011-10 2h-14.7l-2.34.13c-.67-.032-1.33-.188-1.95-.46-.68-.237-1.3-.611-1.82-1.1-.82-.989-1.28-2.227-1.3-3.51v-86.46c-.01-.106-.01-.212-.01-.319 0-2.786 2.29-5.08 5.08-5.08s5.08 2.294 5.08 5.08c0 .107 0 .213-.01.319v27.43zm15.86 26.13c.09-4.27-1.55-8.4-4.55-11.44-1.45-1.451-3.17-2.6-5.07-3.38-1.98-.794-4.1-1.191-6.24-1.17h-12v43.81h12c4.24.048 8.3-1.7 11.18-4.81 1.53-1.435 2.73-3.19 3.51-5.14.77-1.907 1.17-3.944 1.17-6z"/><path d="m1090.86 170c1.26.012 2.47.498 3.38 1.36 1.05.938 1.63 2.302 1.56 3.71v86.19c.07 1.405-.51 2.766-1.56 3.7-.92.862-2.12 1.35-3.38 1.37-1.41.053-2.78-.438-3.84-1.37-1.01-.957-1.56-2.309-1.49-3.7v-86.21c-.07-1.394.48-2.749 1.49-3.71 1.06-.922 2.44-1.402 3.84-1.34z"/><path d="m1111 198.84c-1.36.051-2.67-.498-3.58-1.5-.91-1.011-1.4-2.338-1.36-3.7-.07-1.37.42-2.713 1.36-3.71.96-.927 2.25-1.419 3.58-1.36 1.36-.042 2.69.445 3.7 1.36 1.02.956 1.57 2.314 1.5 3.71v.081c0 2.808-2.31 5.12-5.12 5.12-.03 0-.05-.001-.08-.001zm5.2 62.4c.07 1.393-.48 2.747-1.5 3.7-1.01.917-2.34 1.409-3.7 1.37-3.3 0-4.94-1.69-4.94-5.07v-53.69c-.07-1.37.42-2.713 1.36-3.71.96-.927 2.25-1.419 3.58-1.36 1.36-.042 2.69.445 3.7 1.36 1.02.956 1.57 2.314 1.5 3.71z"/><path d="m1151.18 212.62c-2.04-.008-4.05.411-5.92 1.23-3.63 1.545-6.51 4.435-8.06 8.06-.82 1.866-1.24 3.882-1.23 5.92v13.26c-.01 2.034.41 4.048 1.23 5.91.79 1.805 1.89 3.457 3.25 4.88 1.37 1.405 3.01 2.53 4.81 3.31 1.86.827 3.88 1.25 5.92 1.24h11c1.35-.048 2.66.442 3.64 1.36.96.936 1.48 2.239 1.43 3.58.07 1.379-.45 2.725-1.43 3.7-.98.921-2.29 1.414-3.64 1.37h-11c-3.43.023-6.83-.64-10-1.95-6.13-2.506-11.01-7.368-13.53-13.49-1.33-3.144-2.01-6.526-2-9.94v-13.23c0-3.375.68-6.715 2-9.82 1.25-2.988 3.07-5.708 5.35-8.01 2.34-2.317 5.1-4.17 8.13-5.46 3.16-1.345 6.56-2.026 10-2h11c1.35-.048 2.66.442 3.64 1.36 1.89 2.069 1.89 5.281 0 7.35-.97.951-2.28 1.467-3.64 1.43z"/><path d="m418.55 256.32c1.3.002 2.553.491 3.51 1.37 1.032.893 1.606 2.206 1.56 3.57.067 1.405-.508 2.767-1.56 3.7-.955.883-2.209 1.373-3.51 1.37h-5.72c-3.43.022-6.83-.641-10-1.95-3.038-1.24-5.801-3.069-8.13-5.38-2.311-2.319-4.164-5.054-5.46-8.06-1.361-3.156-2.043-6.563-2-10v-65.87c-.068-1.393.481-2.747 1.5-3.7 1.01-.917 2.336-1.409 3.7-1.37 1.3.002 2.553.491 3.51 1.37 1.051.934 1.625 2.295 1.56 3.7v27.3h16.77c1.348-.053 2.662.441 3.64 1.37.996.961 1.56 2.287 1.56 3.671 0 2.798-2.303 5.1-5.1 5.1-.034 0-.067 0-.1-.001h-16.79v28.49c-.019 4.039 1.573 7.924 4.42 10.79 1.404 1.4 3.06 2.523 4.88 3.31 1.89.831 3.935 1.254 6 1.24z"/><path d="m461.19 202.37c1.33-.055 2.626.441 3.58 1.37 1.806 2.101 1.806 5.239 0 7.34-.933.967-2.238 1.488-3.58 1.43h-8.32c-1.443-.005-2.874.259-4.22.78-1.317.499-2.499 1.301-3.45 2.34-2.095 2.063-3.307 4.861-3.38 7.8v37.83c.069 1.391-.476 2.745-1.49 3.7-2.021 1.822-5.129 1.822-7.15 0-1.091-.91-1.695-2.281-1.63-3.7v-53.82c-.063-1.419.541-2.789 1.63-3.7 1.799-1.605 4.464-1.822 6.5-.53.824.573 1.474 1.362 1.88 2.28 3.4-2.086 7.322-3.167 11.31-3.12z"/><path d="m503.05 202.37c2.056.007 4.092.404 6 1.17 1.951.751 3.722 1.902 5.2 3.38 2.958 3.015 4.596 7.087 4.55 11.31v43c.072 1.367-.42 2.705-1.36 3.7-.952.932-2.249 1.428-3.58 1.37-2.513 0-4.203-1-5.07-3-3.376 2.018-7.247 3.057-11.18 3h-6c-2.853.018-5.682-.533-8.32-1.62-2.526-1.039-4.823-2.564-6.76-4.49-1.93-1.946-3.474-4.239-4.55-6.76-1.129-2.628-1.705-5.46-1.69-8.32-.027-2.806.504-5.59 1.56-8.19 1.054-2.532 2.601-4.83 4.55-6.76 4.042-4.001 9.523-6.22 15.21-6.16h13.26c1.05.073 2.084-.289 2.86-1h-.13c.689-.84 1.016-1.919.91-3v-1.69c.105-1.546-.464-3.064-1.56-4.16-1.007-1.067-2.435-1.638-3.9-1.56h-23.14c-1.375.041-2.71-.475-3.7-1.43-1.987-2.025-1.987-5.315 0-7.34 1.01-.917 2.336-1.409 3.7-1.37zm2.21 50.7c2.161-2.06 3.344-4.946 3.25-7.93v-11.31c-.548.176-1.116.287-1.69.33-.6 0-1.26.06-1.95.06h-13.26c-2.934-.074-5.775 1.054-7.86 3.12-2.11 2.036-3.269 4.869-3.19 7.8-.014 1.496.275 2.979.85 4.36.539 1.311 1.335 2.501 2.34 3.5 1.011 1.013 2.201 1.83 3.51 2.41 1.367.614 2.851.925 4.35.91h6c1.452.004 2.89-.282 4.23-.84 1.301-.547 2.467-1.369 3.42-2.41z"/><path d="m560.25 202.37c2.86-.02 5.694.556 8.32 1.69 2.535 1.087 4.85 2.629 6.83 4.55 1.962 1.931 3.528 4.228 4.61 6.76 1.133 2.626 1.708 5.46 1.69 8.32v37.57c.067 1.405-.508 2.767-1.56 3.7-.914.866-2.121 1.355-3.38 1.37-1.406.06-2.781-.432-3.83-1.37-1.02-.952-1.569-2.307-1.5-3.7v-37.57c.014-1.502-.297-2.989-.91-4.36-1.168-2.634-3.276-4.742-5.91-5.91-1.373-.608-2.859-.919-4.36-.91h-8.06c-2.906-.053-5.707 1.103-7.73 3.19-2.094 2.041-3.329 4.808-3.45 7.73v37.83c.07 1.38-.45 2.726-1.43 3.7-.978.929-2.292 1.423-3.64 1.37-1.364.044-2.693-.448-3.7-1.37-1.02-.952-1.569-2.307-1.5-3.7v-53.82c-.068-1.393.481-2.747 1.5-3.7 1.01-.917 2.336-1.409 3.7-1.37 2.51 0 4.12 1.09 4.81 3.25 3.415-2.174 7.392-3.304 11.44-3.25z"/><path d="m629.93 241.89c2.814 2.645 4.412 6.34 4.412 10.202 0 3.8-1.547 7.44-4.282 10.078-2.575 2.764-6.224 4.282-10 4.16h-23.93c-1.328.059-2.622-.438-3.57-1.37-.944-.993-1.44-2.332-1.37-3.7-.004-.082-.006-.164-.006-.246 0-2.579 2.121-4.7 4.7-4.7.082 0 .164.002.246.006h23.92c.572-.015 1.132-.169 1.63-.45.56-.31 1.1-.59 1.62-.85.327-.392.551-.859.65-1.36.086-.452.129-.91.13-1.37-.043-1.112-.388-2.191-1-3.12-4.247-3.64-8.537-7.343-12.87-11.11s-8.58-7.517-12.74-11.25c-2.875-2.685-4.482-6.467-4.42-10.4-.006-1.883.393-3.745 1.17-5.46.744-1.671 1.758-3.208 3-4.55 2.622-2.78 6.321-4.298 10.14-4.16h20.8c1.366-.037 2.696.454 3.71 1.37.993.915 1.538 2.22 1.49 3.57.078 1.434-.465 2.834-1.49 3.84-1.015.913-2.345 1.401-3.71 1.36h-20.8c-1.118-.041-2.205.382-3 1.17-.654.809-1.007 1.82-1 2.86 0 1.393.26 2.303.78 2.73.087.087 2.297 2.017 6.63 5.79s10.72 9.427 19.16 16.96z"/><path d="m671.4 202.37c3.341-.006 6.651.633 9.75 1.88 3.09 1.243 5.882 3.128 8.19 5.53 2.491 2.271 4.445 5.069 5.72 8.19 1.227 3.103 1.845 6.413 1.82 9.75v13.28c.038 3.436-.643 6.843-2 10-1.303 3.003-3.155 5.736-5.46 8.06-4.776 4.752-11.263 7.397-18 7.34-2.753.003-5.491-.412-8.12-1.23-2.551-.779-4.949-1.99-7.09-3.58v21.32c.049 1.341-.47 2.642-1.43 3.58-.983.92-2.294 1.41-3.64 1.36-1.362.042-2.689-.445-3.7-1.36-.999-.916-1.547-2.226-1.5-3.58v-75.4c-.068-1.393.481-2.747 1.5-3.7 1.01-.917 2.336-1.409 3.7-1.37 1.347-.046 2.658.447 3.64 1.37.979.975 1.499 2.321 1.43 3.7 4.337-3.378 9.693-5.19 15.19-5.14zm15.34 25.35c-.012-1.965-.409-3.908-1.17-5.72-.76-1.877-1.862-3.596-3.25-5.07h.13c-2.935-2.903-6.923-4.498-11.05-4.42-4.05-.076-7.957 1.525-10.79 4.42-2.844 2.867-4.435 6.751-4.42 10.79v13.28c-.01 2.039.413 4.057 1.24 5.92.783 1.805 1.884 3.455 3.25 4.87 1.369 1.41 3.004 2.535 4.81 3.31 1.86.828 3.874 1.251 5.91 1.24 2.082.019 4.144-.404 6.05-1.24 1.816-.789 3.468-1.912 4.87-3.31 1.393-1.394 2.497-3.049 3.25-4.87.781-1.875 1.179-3.888 1.17-5.92z"/><path d="m749.53 209.91c2.332 2.316 4.19 5.064 5.47 8.09 1.315 3.058 1.996 6.351 2 9.68v13.32c.038 3.436-.643 6.843-2 10-1.303 3.003-3.155 5.736-5.46 8.06-2.33 2.313-5.092 4.145-8.13 5.39-6.349 2.599-13.471 2.599-19.82 0-9.442-3.917-15.588-13.228-15.48-23.45v-13.28c-.011-3.325.652-6.619 1.95-9.68 1.273-3.04 3.128-5.802 5.46-8.13h-.13c2.295-2.481 5.118-4.416 8.26-5.66 3.121-1.244 6.45-1.882 9.81-1.88 3.364-.018 6.7.62 9.82 1.88 3.114 1.292 5.924 3.22 8.25 5.66zm-18.07 46.41c2.039.01 4.057-.413 5.92-1.24 1.832-.798 3.505-1.92 4.94-3.31 1.429-1.391 2.576-3.045 3.38-4.87.819-1.866 1.238-3.882 1.23-5.92v-13.26c.001-1.986-.397-3.951-1.17-5.78-.79-1.871-1.938-3.57-3.38-5-2.875-2.913-6.829-4.513-10.92-4.42-4.032.021-7.902 1.607-10.79 4.42-2.844 2.867-4.435 6.751-4.42 10.79v13.27c-.01 2.039.413 4.057 1.24 5.92.783 1.805 1.884 3.455 3.25 4.87 1.369 1.41 3.004 2.535 4.81 3.31 1.861.821 3.876 1.237 5.91 1.22z"/><path d="m796.72 202.37c1.33-.054 2.626.442 3.58 1.37 1.806 2.101 1.806 5.239 0 7.34-.934.965-2.238 1.486-3.58 1.43h-8.32c-1.443-.005-2.874.259-4.22.78-1.317.499-2.499 1.301-3.45 2.34-2.095 2.063-3.307 4.861-3.38 7.8v37.83c.069 1.391-.476 2.745-1.49 3.7-2.021 1.822-5.129 1.822-7.15 0-1.091-.91-1.695-2.281-1.63-3.7v-53.82c-.063-1.419.541-2.789 1.63-3.7.943-.857 2.166-1.344 3.44-1.37 1.081-.036 2.149.257 3.06.84.824.573 1.474 1.362 1.88 2.28 3.4-2.086 7.322-3.167 11.31-3.12z"/><path d="m842.22 256.32c1.3.002 2.553.491 3.51 1.37 1.032.893 1.606 2.206 1.56 3.57.067 1.405-.508 2.767-1.56 3.7-.955.883-2.209 1.373-3.51 1.37h-5.72c-3.43.022-6.83-.641-10-1.95-3.035-1.244-5.795-3.076-8.12-5.39-2.311-2.319-4.164-5.054-5.46-8.06-1.361-3.156-2.043-6.563-2-10v-65.86c-.068-1.393.481-2.747 1.5-3.7 1.01-.917 2.336-1.409 3.7-1.37 1.3.002 2.553.491 3.51 1.37 1.051.934 1.625 2.295 1.56 3.7v27.3h16.77c1.347-.046 2.658.447 3.64 1.37.996.961 1.56 2.287 1.56 3.671 0 2.798-2.303 5.1-5.1 5.1-.034 0-.067 0-.1-.001h-16.8v28.49c-.009 2.032.389 4.045 1.17 5.92.753 1.821 1.857 3.476 3.25 4.87 1.404 1.4 3.06 2.523 4.88 3.31 1.89.832 3.935 1.254 6 1.24z"/><path d="m233.35 202.58c3.302-.005 6.576.612 9.65 1.82 3.045 1.192 5.78 3.059 8 5.46 2.444 2.234 4.354 4.988 5.59 8.06 1.213 3.016 1.831 6.239 1.82 9.49v14c.041 6.64-2.609 13.021-7.34 17.68-2.31 2.261-5.024 4.069-8 5.33-3.078 1.328-6.397 2.009-9.75 2-3.457.022-6.883-.659-10.07-2-3.104-1.306-5.881-3.284-8.13-5.79v27.37c.022.888-.343 1.742-1 2.34-1.367 1.209-3.443 1.209-4.81 0-.656-.598-1.021-1.453-1-2.34v-80.17c-.021-.887.344-1.742 1-2.34 1.367-1.209 3.443-1.209 4.81 0 .657.598 1.022 1.452 1 2.34v4.68c-.017-.14.067-.274.2-.32.146-.064.26-.183.32-.33 4.643-4.766 11.058-7.403 17.71-7.28zm18.46 24.83c-.002-2.37-.489-4.715-1.43-6.89-.922-2.221-2.244-4.255-3.9-6-3.433-3.554-8.189-5.532-13.13-5.46-4.87-.101-9.558 1.888-12.87 5.46-1.728 1.707-3.089 3.749-4 6-.899 2.186-1.364 4.526-1.37 6.89v14c-.023 2.476.464 4.93 1.43 7.21.936 2.172 2.257 4.158 3.9 5.86 1.648 1.701 3.616 3.061 5.79 4 2.235.962 4.647 1.449 7.08 1.43 2.48.028 4.938-.459 7.22-1.43 4.411-1.888 7.927-5.407 9.81-9.82.971-2.278 1.458-4.734 1.43-7.21z"/><path d="m293.28 202.58c6.656-.13 13.077 2.508 17.72 7.28 4.668 4.644 7.29 10.966 7.28 17.55v6.37c.001.024.001.047.001.071 0 1.816-1.494 3.31-3.31 3.31-.024 0-.047 0-.071-.001h-40v4.29c-.023 2.476.464 4.93 1.43 7.21.952 2.188 2.309 4.176 4 5.86 1.678 1.693 3.663 3.051 5.85 4 2.278.971 4.734 1.458 7.21 1.43h14.17c1.783 0 3.25 1.467 3.25 3.25s-1.467 3.25-3.25 3.25h-14.28c-3.352.007-6.671-.674-9.75-2-2.977-1.26-5.69-3.068-8-5.33-4.739-4.654-7.393-11.038-7.35-17.68v-14c-.006-3.251.611-6.472 1.82-9.49 1.243-3.067 3.153-5.821 5.59-8.06 2.266-2.374 5.015-4.236 8.06-5.46 3.062-1.228 6.331-1.856 9.63-1.85zm18.2 24.83c-.002-2.363-.464-4.703-1.36-6.89-.908-2.253-2.27-4.295-4-6-3.307-3.58-7.998-5.57-12.87-5.46-2.433-.014-4.843.473-7.08 1.43-4.476 1.932-8.04 5.515-9.95 10-.936 2.177-1.423 4.52-1.43 6.89v3.12h36.66z"/><path d="m333.58 168c.824.016 1.614.341 2.21.91.664.593 1.03 1.451 1 2.34v91.65c.051.931-.316 1.837-1 2.47-.596.569-1.386.894-2.21.91-.93.041-1.839-.286-2.53-.91-.674-.64-1.039-1.541-1-2.47v-91.65c-.021-.887.344-1.742 1-2.34.691-.624 1.6-.951 2.53-.91z"/><path d="m781.8 91.8c.811.382 1.472 1.022 1.88 1.82.394.81.465 1.74.2 2.6l-20.8 57.07c-.43 1.402-1.788 2.326-3.25 2.21h-4.16c-1.463.12-2.823-.805-3.25-2.21l-20.67-57.07c-.269-.859-.201-1.789.19-2.6.435-.82 1.142-1.464 2-1.82.85-.175 1.733-.084 2.53.26.824.345 1.399 1.112 1.5 2l19.63 54.6 19.91-54.66c.251-.877.867-1.606 1.69-2 .826-.331 1.733-.401 2.6-.2z"/><path d="m821.45 91.67c1.909-.01 3.803.329 5.59 1 1.808.684 3.449 1.748 4.81 3.12 2.821 2.766 4.374 6.58 4.29 10.53v45.89c.028.871-.301 1.717-.91 2.34-.621.613-1.468.943-2.34.91-.909.02-1.792-.305-2.47-.91-.664-.593-1.03-1.451-1-2.34v-2.08c-3.717 3.511-8.668 5.426-13.78 5.33h-6.37c-2.751.024-5.477-.531-8-1.63-2.414-1.041-4.617-2.516-6.5-4.35-1.876-1.84-3.377-4.028-4.42-6.44-1.092-2.524-1.644-5.25-1.62-8-.014-2.701.516-5.378 1.56-7.87 1.047-2.484 2.546-4.752 4.42-6.69 1.891-1.903 4.146-3.406 6.63-4.42 2.514-1.041 5.209-1.571 7.93-1.56h14.13c1.637.037 3.225-.57 4.42-1.69 1.056-1.173 1.616-2.712 1.56-4.29v-2.21c.06-2.188-.787-4.307-2.34-5.85-.716-.706-1.553-1.278-2.47-1.69-.982-.436-2.046-.658-3.12-.65h-24.57c-.933.042-1.846-.285-2.54-.91-1.283-1.284-1.283-3.396 0-4.68.694-.625 1.607-.952 2.54-.91h24.57zm3.77 53.3c2.689-2.578 4.195-6.156 4.16-9.88v-15.47c-.87.654-1.869 1.117-2.93 1.36-1.002.221-2.024.331-3.05.33h-14.17c-7.559.001-13.778 6.221-13.778 13.78 0 1.852.374 3.685 1.098 5.39.7 1.639 1.693 3.137 2.93 4.42 2.563 2.625 6.081 4.105 9.75 4.1h6.37c1.811.001 3.603-.378 5.26-1.11 1.622-.681 3.101-1.661 4.36-2.89z"/><path d="m853.17 57.09c.824.018 1.613.342 2.21.91.664.593 1.03 1.451 1 2.34v91.66c.051.931-.316 1.837-1 2.47-.597.568-1.386.892-2.21.91-.933.042-1.846-.285-2.54-.91-.674-.64-1.039-1.541-1-2.47v-91.66c-.022-.888.343-1.742 1-2.34.694-.625 1.607-.952 2.54-.91z"/><path d="m894.11 91.67c6.65-.105 13.055 2.55 17.68 7.33 4.668 4.644 7.29 10.966 7.28 17.55v6.37.05c0 1.827-1.503 3.33-3.33 3.33-.016 0-.033 0-.05 0h-40v4.29c-.023 2.476.464 4.93 1.43 7.21 1.899 4.405 5.415 7.921 9.82 9.82 2.28.966 4.734 1.453 7.21 1.43h14.17c1.783 0 3.25 1.467 3.25 3.25s-1.467 3.25-3.25 3.25h-14.21c-3.349.022-6.667-.641-9.75-1.95-2.975-1.264-5.688-3.072-8-5.33-4.755-4.665-7.414-11.069-7.36-17.73v-14c-.006-3.251.611-6.472 1.82-9.49 1.25-3.066 3.167-5.816 5.61-8.05 2.264-2.377 5.013-4.24 8.06-5.46 3.057-1.233 6.323-1.868 9.62-1.87zm18.2 24.83c-.002-2.363-.464-4.703-1.36-6.89-.908-2.253-2.27-4.295-4-6-3.307-3.58-7.998-5.57-12.87-5.46-2.434-.008-4.845.486-7.08 1.45-4.476 1.932-8.04 5.515-9.95 10-.936 2.177-1.423 4.52-1.43 6.89v3.12h36.66z"/><path d="m965.88 93.29c2.436 1.038 4.66 2.516 6.56 4.36 1.892 1.863 3.412 4.069 4.48 6.5 1.133 2.535 1.71 5.283 1.69 8.06v40c.03.889-.336 1.747-1 2.34-.596.569-1.386.894-2.21.91-.93.041-1.839-.286-2.53-.91-.656-.598-1.021-1.453-1-2.34v-40c.014-1.857-.361-3.697-1.1-5.4-1.477-3.37-4.17-6.063-7.54-7.54-1.705-.735-3.543-1.109-5.4-1.1h-8.58c-1.834-.013-3.651.361-5.33 1.1-1.609.717-3.081 1.709-4.35 2.93-1.282 1.234-2.302 2.713-3 4.35-.732 1.666-1.153 3.452-1.24 5.27v40.43c.022.888-.343 1.742-1 2.34-1.367 1.209-3.443 1.209-4.81 0-.656-.598-1.021-1.453-1-2.34v-57.33c-.021-.887.344-1.742 1-2.34 1.367-1.209 3.443-1.209 4.81 0 .657.598 1.022 1.452 1 2.34v2.21c3.721-3.602 8.733-5.569 13.91-5.46h8.58c2.769-.016 5.512.535 8.06 1.62z"/><path d="m1008 99.6c-2.2.925-4.19 2.286-5.85 4-1.65 1.697-2.966 3.679-3.9 5.85-.957 2.24-1.444 4.654-1.43 7.09v14c-.023 2.476.464 4.93 1.43 7.21.934 2.171 2.25 4.153 3.9 5.85 1.66 1.713 3.65 3.074 5.85 4 2.26.952 4.7 1.439 7.15 1.43h11.7c.89-.027 1.76.301 2.41.91 1.28 1.284 1.28 3.396 0 4.68-.65.609-1.52.937-2.41.91h-11.7c-3.39.031-6.75-.633-9.88-1.95-5.991-2.521-10.758-7.296-13.27-13.29-1.328-3.078-2.009-6.397-2-9.75v-14c0-3.31.681-6.584 2-9.62 3.908-9.273 13.08-15.3 23.14-15.21h11.7c.89-.027 1.76.301 2.41.91 1.28 1.284 1.28 3.396 0 4.68-.65.609-1.52.937-2.41.91h-11.7c-2.45-.02-4.88.453-7.14 1.39z"/><path d="m1046 83.61c-.89.021-1.74-.344-2.34-1-.62-.691-.95-1.6-.91-2.53 0-.044 0-.089 0-.133 0-1.711 1.41-3.12 3.12-3.12.04 0 .09.001.13.003.89-.027 1.76.301 2.41.91.66.598 1.02 1.452 1 2.34.03.945-.33 1.862-1 2.53-.63.653-1.5 1.015-2.41 1zm3.38 68.38c.04.929-.33 1.83-1 2.47-.65.609-1.52.937-2.41.91-2.16 0-3.25-1.13-3.25-3.38v-57.07c0-.044 0-.089 0-.133 0-1.711 1.41-3.12 3.12-3.12.04 0 .09.001.13.003.89-.027 1.76.301 2.41.91.66.598 1.02 1.452 1 2.34z"/><path d="m1093.27 91.67c1.91-.011 3.8.328 5.59 1 1.81.681 3.45 1.745 4.81 3.12 2.82 2.766 4.37 6.58 4.29 10.53v45.89.133c0 1.711-1.41 3.12-3.12 3.12-.04 0-.09-.001-.13-.003-.91.016-1.79-.308-2.47-.91-.66-.593-1.03-1.451-1-2.34v-2.08c-3.72 3.513-8.67 5.429-13.78 5.33h-6.37c-2.75.026-5.48-.53-8-1.63-2.41-1.041-4.62-2.516-6.5-4.35-1.88-1.838-3.38-4.026-4.42-6.44-1.1-2.522-1.66-5.248-1.63-8-.01-2.701.52-5.378 1.56-7.87 1.05-2.484 2.55-4.752 4.42-6.69 1.89-1.898 4.15-3.401 6.63-4.42 2.51-1.039 5.21-1.57 7.93-1.56h14.17c1.64.04 3.23-.568 4.42-1.69 1.06-1.173 1.62-2.712 1.56-4.29v-2.21c.06-2.188-.79-4.307-2.34-5.85-.71-.71-1.55-1.283-2.47-1.69-.98-.438-2.04-.66-3.12-.65h-24.6c-.93.041-1.84-.286-2.53-.91-.63-.616-.98-1.46-.98-2.34s.35-1.724.98-2.34c.69-.624 1.6-.951 2.53-.91h24.57zm3.73 53.33c2.69-2.575 4.2-6.155 4.16-9.88v-15.5c-.87.653-1.86 1.117-2.92 1.36-1 .221-2.03.331-3.06.33h-14.17c-.01 0-.01 0-.02 0-7.55 0-13.76 6.211-13.76 13.76 0 1.86.38 3.7 1.11 5.41.7 1.638 1.69 3.136 2.92 4.42 2.57 2.621 6.08 4.1 9.75 4.1h6.37c1.81.002 3.61-.376 5.27-1.11 1.62-.679 3.1-1.66 4.35-2.89z"/><path d="m1158.4 93.29c2.44 1.04 4.66 2.518 6.57 4.36 1.89 1.866 3.41 4.071 4.48 6.5 1.13 2.535 1.71 5.283 1.69 8.06v40c.03.889-.34 1.747-1 2.34-.6.569-1.39.894-2.21.91-.93.041-1.84-.286-2.53-.91-.66-.598-1.02-1.453-1-2.34v-40c.01-1.857-.36-3.695-1.1-5.4-1.48-3.37-4.17-6.063-7.54-7.54-1.7-.735-3.54-1.109-5.4-1.1h-8.58c-1.83-.013-3.65.361-5.33 1.1-1.61.715-3.08 1.706-4.35 2.93-1.28 1.234-2.3 2.713-3 4.35-.73 1.666-1.15 3.452-1.24 5.27v40.43c.02.888-.34 1.742-1 2.34-1.37 1.209-3.44 1.209-4.81 0-.66-.598-1.02-1.453-1-2.34v-57.33c-.02-.887.34-1.742 1-2.34 1.37-1.209 3.44-1.209 4.81 0 .66.598 1.02 1.452 1 2.34v2.21c3.72-3.603 8.73-5.57 13.91-5.46h8.58c2.77-.017 5.51.534 8.05 1.62z"/><path d="m1214.3 91.67c1.91-.011 3.8.328 5.59 1 1.81.684 3.45 1.748 4.81 3.12 2.82 2.766 4.37 6.58 4.29 10.53v45.89.133c0 1.711-1.41 3.12-3.12 3.12-.04 0-.09-.001-.13-.003-.91.018-1.79-.307-2.47-.91-.66-.593-1.03-1.451-1-2.34v-2.08c-3.72 3.513-8.67 5.429-13.78 5.33h-6.37c-2.75.024-5.48-.531-8-1.63-2.41-1.046-4.61-2.52-6.5-4.35-1.87-1.841-3.37-4.028-4.41-6.44-1.1-2.522-1.66-5.248-1.63-8-.01-2.701.52-5.378 1.56-7.87 1.05-2.484 2.55-4.752 4.42-6.69 1.89-1.898 4.15-3.401 6.63-4.42 2.51-1.04 5.21-1.57 7.93-1.56h14.17c1.64.038 3.23-.57 4.42-1.69 1.06-1.173 1.62-2.712 1.56-4.29v-2.21c.06-2.188-.79-4.307-2.34-5.85-.72-.708-1.55-1.28-2.47-1.69-.98-.438-2.05-.66-3.12-.65h-24.57c-.93.043-1.84-.284-2.53-.91-.63-.616-.98-1.46-.98-2.34s.35-1.724.98-2.34c.69-.626 1.6-.953 2.53-.91h24.57zm3.77 53.3c2.69-2.578 4.2-6.156 4.16-9.88v-15.47c-.87.655-1.87 1.119-2.93 1.36-.98.218-1.99.328-3 .33h-14.17c-.01 0-.01 0-.02 0-7.55 0-13.76 6.211-13.76 13.76 0 1.86.38 3.7 1.11 5.41.7 1.638 1.69 3.136 2.92 4.42 2.56 2.621 6.08 4.1 9.75 4.1h6.37c1.81.003 3.6-.376 5.26-1.11 1.61-.682 3.07-1.663 4.31-2.89z"/><path d="m241.15 91.54c2.056.007 4.092.404 6 1.17 1.951.751 3.722 1.902 5.2 3.38 2.958 3.015 4.596 7.087 4.55 11.31v43c.072 1.367-.42 2.705-1.36 3.7-.954.929-2.25 1.425-3.58 1.37-2.507 0-4.197-1-5.07-3-3.376 2.018-7.247 3.057-11.18 3h-6c-2.854.019-5.684-.535-8.32-1.63-2.527-1.031-4.825-2.554-6.76-4.48-1.928-1.947-3.472-4.241-4.55-6.76-1.129-2.628-1.705-5.46-1.69-8.32-.027-2.806.503-5.59 1.56-8.19 1.054-2.532 2.601-4.83 4.55-6.76 4.022-4.041 9.509-6.292 15.21-6.24h13.29c1.049.07 2.083-.291 2.86-1h-.13c.689-.84 1.016-1.919.91-3v-1.69c.106-1.546-.463-3.065-1.56-4.16-1.007-1.067-2.435-1.638-3.9-1.56h-23.18c-1.374.036-2.707-.479-3.7-1.43-1.988-2.028-1.988-5.322 0-7.35 1.011-.915 2.338-1.402 3.7-1.36zm2.21 50.7c2.161-2.06 3.344-4.946 3.25-7.93v-11.31c-.548.177-1.115.285-1.69.32-.6.05-1.25.07-1.95.07h-13.26c-2.934-.074-5.775 1.054-7.86 3.12-2.11 2.036-3.269 4.869-3.19 7.8-.015 1.493.274 2.973.85 4.35.537 1.315 1.333 2.509 2.34 3.51 1.011 1.013 2.201 1.83 3.51 2.41 1.367.614 2.851.925 4.35.91h6c1.453.006 2.892-.283 4.23-.85 1.302-.54 2.47-1.359 3.42-2.4z"/><path d="m304.85 131.06c2.814 2.645 4.412 6.34 4.412 10.202 0 3.8-1.547 7.44-4.282 10.078-2.577 2.762-6.225 4.279-10 4.16h-23.93c-1.327.054-2.62-.442-3.57-1.37-.944-.993-1.44-2.332-1.37-3.7-.005-.086-.007-.171-.007-.257 0-2.573 2.117-4.69 4.69-4.69.086 0 .171.002.257.007h23.95c.573-.013 1.134-.172 1.63-.46l1.62-.84c.333-.392.557-.864.65-1.37.086-.448.13-.904.13-1.36-.037-1.113-.384-2.193-1-3.12-4.24-3.64-8.53-7.347-12.87-11.12s-8.61-7.513-12.81-11.22c-2.868-2.69-4.473-6.468-4.42-10.4-.006-1.883.393-3.745 1.17-5.46.744-1.671 1.758-3.208 3-4.55 2.622-2.78 6.321-4.298 10.14-4.16h20.76c1.365-.043 2.696.445 3.71 1.36.994.919 1.538 2.227 1.49 3.58.084 1.432-.46 2.832-1.49 3.83-1.013.918-2.343 1.409-3.71 1.37h-20.8c-1.118-.041-2.205.382-3 1.17-.654.809-1.007 1.82-1 2.86 0 1.387.26 2.297.78 2.73.087.093 2.297 2.02 6.63 5.78s10.747 9.41 19.24 16.95z"/><path d="m354.38 131.06c2.814 2.645 4.412 6.34 4.412 10.202 0 3.8-1.547 7.44-4.282 10.078-2.577 2.762-6.225 4.279-10 4.16h-23.93c-1.327.054-2.62-.442-3.57-1.37-.944-.993-1.44-2.332-1.37-3.7-.005-.086-.007-.171-.007-.257 0-2.573 2.117-4.69 4.69-4.69.086 0 .171.002.257.007h23.92c.573-.013 1.134-.172 1.63-.46l1.62-.84c.333-.392.557-.864.65-1.37.086-.448.13-.904.13-1.36-.037-1.113-.384-2.193-1-3.12-4.24-3.64-8.53-7.347-12.87-11.12s-8.6-7.513-12.78-11.22c-2.868-2.69-4.473-6.468-4.42-10.4-.006-1.883.393-3.745 1.17-5.46.744-1.671 1.758-3.208 3-4.55 2.622-2.78 6.321-4.298 10.14-4.16h20.8c1.365-.043 2.696.445 3.71 1.36.994.919 1.538 2.227 1.49 3.58.084 1.432-.46 2.832-1.49 3.83-1.013.918-2.343 1.409-3.71 1.37h-20.8c-1.118-.041-2.205.382-3 1.17-.654.809-1.007 1.82-1 2.86 0 1.387.26 2.297.78 2.73.093.093 2.303 2.02 6.63 5.78s10.727 9.41 19.2 16.95z"/><path d="m410 99.08c2.33 2.327 4.184 5.085 5.46 8.12 1.297 3.065 1.96 6.362 1.95 9.69v13.26c.031 3.416-.65 6.802-2 9.94-1.298 3.005-3.15 5.74-5.46 8.06-2.328 2.318-5.091 4.154-8.13 5.4-6.349 2.599-13.471 2.599-19.82 0-6.084-2.535-10.925-7.376-13.46-13.46-1.315-3.148-1.978-6.529-1.95-9.94v-13.26c-.01-3.328.653-6.625 1.95-9.69 1.276-3.035 3.13-5.793 5.46-8.12h-.13c2.295-2.481 5.118-4.416 8.26-5.66 3.14-1.252 6.49-1.89 9.87-1.88 3.364-.018 6.7.62 9.82 1.88 3.089 1.3 5.875 3.228 8.18 5.66zm-18 46.41c2.039.01 4.057-.413 5.92-1.24 1.832-.798 3.505-1.92 4.94-3.31 1.431-1.393 2.579-3.05 3.38-4.88.82-1.862 1.239-3.876 1.23-5.91v-13.26c0-1.989-.398-3.957-1.17-5.79-.789-1.872-1.937-3.571-3.38-5-2.872-2.918-6.827-4.519-10.92-4.42-4.033.017-7.904 1.603-10.79 4.42-2.844 2.867-4.435 6.751-4.42 10.79v13.26c-.011 2.036.412 4.05 1.24 5.91.78 1.809 1.881 3.463 3.25 4.88 1.369 1.41 3.004 2.535 4.81 3.31 1.86.828 3.874 1.251 5.91 1.24z"/><path d="m452.4 101.68c-2.034-.009-4.048.41-5.91 1.23-3.625 1.545-6.515 4.435-8.06 8.06-.827 1.863-1.25 3.881-1.24 5.92v13.26c-.011 2.036.412 4.05 1.24 5.91.78 1.809 1.881 3.463 3.25 4.88 1.369 1.41 3.004 2.535 4.81 3.31 1.86.828 3.874 1.251 5.91 1.24h11.05c1.347-.056 2.66.435 3.64 1.36.965.934 1.486 2.238 1.43 3.58.074 1.38-.447 2.728-1.43 3.7-.978.929-2.292 1.423-3.64 1.37h-11.05c-3.43.022-6.83-.641-10-1.95-6.114-2.51-10.983-7.357-13.52-13.46-1.315-3.148-1.978-6.529-1.95-9.94v-13.26c-.034-6.7 2.61-13.144 7.34-17.89 2.335-2.319 5.091-4.172 8.12-5.46 3.161-1.344 6.565-2.024 10-2h11.05c1.347-.056 2.66.435 3.64 1.36 1.895 2.069 1.895 5.281 0 7.35-.964.958-2.282 1.476-3.64 1.43z"/><path d="m484 87.9c-1.352.05-2.659-.5-3.57-1.5-.917-1.01-1.409-2.336-1.37-3.7-.072-1.367.42-2.705 1.36-3.7.952-.932 2.249-1.428 3.58-1.37 1.363-.038 2.69.454 3.7 1.37 1.012.961 1.556 2.316 1.49 3.71.001.03.001.061.001.091 0 2.803-2.307 5.11-5.11 5.11-.03 0-.061 0-.091-.001zm5.2 62.4c.066 1.391-.478 2.743-1.49 3.7-1.013.918-2.343 1.409-3.71 1.37-3.293 0-4.94-1.69-4.94-5.07v-53.69c-.073-1.372.423-2.715 1.37-3.71.951-.925 2.244-1.418 3.57-1.36 1.365-.043 2.696.445 3.71 1.36 1.012.961 1.556 2.316 1.49 3.71z"/><path d="m530.27 91.54c2.056.008 4.092.405 6 1.17 1.95.752 3.721 1.903 5.2 3.38 2.941 3.024 4.571 7.092 4.53 11.31v43c.072 1.367-.42 2.705-1.36 3.7-.954.928-2.25 1.424-3.58 1.37-2.507 0-4.197-1-5.07-3-3.376 2.018-7.247 3.057-11.18 3h-6c-2.855.02-5.684-.534-8.32-1.63-2.527-1.031-4.825-2.554-6.76-4.48-1.931-1.945-3.475-4.239-4.55-6.76-1.134-2.626-1.71-5.46-1.69-8.32-.027-2.806.503-5.59 1.56-8.19 1.054-2.532 2.601-4.83 4.55-6.76 4.022-4.041 9.509-6.292 15.21-6.24h13.26c1.049.068 2.082-.293 2.86-1h-.13c.689-.84 1.016-1.919.91-3v-1.69c.106-1.546-.463-3.065-1.56-4.16-1.007-1.067-2.435-1.638-3.9-1.56h-23.12c-1.374.036-2.707-.479-3.7-1.43-1.988-2.028-1.988-5.322 0-7.35 1.011-.915 2.338-1.402 3.7-1.36zm2.21 50.7c2.161-2.06 3.344-4.946 3.25-7.93v-11.31c-.548.177-1.115.285-1.69.32-.6.05-1.26.07-1.95.07h-13.26c-2.934-.074-5.775 1.054-7.86 3.12-2.11 2.036-3.269 4.869-3.19 7.8-.015 1.493.274 2.973.85 4.35.537 1.315 1.333 2.509 2.34 3.51 1.011 1.013 2.201 1.83 3.51 2.41 1.367.614 2.851.925 4.35.91h6c1.453.005 2.892-.284 4.23-.85 1.302-.54 2.47-1.359 3.42-2.4z"/><path d="m581.62 101.68c-2.034-.009-4.048.41-5.91 1.23-3.625 1.545-6.515 4.435-8.06 8.06-.827 1.863-1.25 3.881-1.24 5.92v13.26c-.011 2.036.412 4.05 1.24 5.91.78 1.809 1.881 3.463 3.25 4.88 1.369 1.41 3.004 2.535 4.81 3.31 1.86.828 3.874 1.251 5.91 1.24h11c1.347-.056 2.66.435 3.64 1.36.965.934 1.486 2.238 1.43 3.58.074 1.38-.447 2.728-1.43 3.7-.978.929-2.292 1.423-3.64 1.37h-11c-3.43.022-6.83-.641-10-1.95-6.114-2.51-10.983-7.357-13.52-13.46-1.332-3.144-2.012-6.526-2-9.94v-13.26c-.021-6.708 2.641-13.153 7.39-17.89 2.335-2.319 5.091-4.172 8.12-5.46 3.161-1.344 6.565-2.024 10-2h11c1.347-.056 2.66.435 3.64 1.36 1.895 2.069 1.895 5.281 0 7.35-.964.958-2.282 1.476-3.64 1.43z"/><path d="m613.21 87.9c-1.352.05-2.659-.5-3.57-1.5-.917-1.01-1.409-2.336-1.37-3.7-.07-1.368.426-2.707 1.37-3.7.951-.925 2.244-1.418 3.57-1.36 1.365-.041 2.695.447 3.71 1.36 1.012.961 1.556 2.316 1.49 3.71.001.03.001.061.001.091 0 2.803-2.307 5.11-5.11 5.11-.03 0-.061 0-.091-.001zm5.2 62.4c.066 1.391-.478 2.743-1.49 3.7-1.014.916-2.344 1.407-3.71 1.37-3.293 0-4.94-1.69-4.94-5.07v-53.69c-.073-1.372.423-2.715 1.37-3.71.951-.925 2.244-1.418 3.57-1.36 1.365-.041 2.695.447 3.71 1.36 1.012.961 1.556 2.316 1.49 3.71z"/><path d="m673.53 99.08c4.839 4.655 7.566 11.095 7.54 17.81v13.26c.036 3.417-.646 6.803-2 9.94-1.291 3.009-3.144 5.745-5.46 8.06-2.307 2.31-5.046 4.145-8.06 5.4-9.531 4.024-20.604 1.884-27.95-5.4-2.31-2.32-4.162-5.055-5.46-8.06-1.35-3.138-2.031-6.524-2-9.94v-13.26c-.01-3.328.653-6.625 1.95-9.69 2.744-6.138 7.666-11.049 13.81-13.78 3.077-1.251 6.369-1.89 9.69-1.88 6.773-.133 13.295 2.609 17.94 7.54zm-17.94 46.41c2.017.015 4.013-.408 5.85-1.24 1.805-.809 3.453-1.93 4.87-3.31 1.434-1.391 2.583-3.048 3.38-4.88.828-1.86 1.251-3.874 1.24-5.91v-13.26c.01-4.038-1.58-7.919-4.42-10.79-2.892-2.888-6.834-4.484-10.92-4.42-4.051-.083-7.961 1.518-10.79 4.42-2.844 2.867-4.435 6.751-4.42 10.79v13.26c-.009 2.034.41 4.048 1.23 5.91.787 1.805 1.888 3.457 3.25 4.88 1.373 1.405 3.007 2.53 4.81 3.31 1.863.827 3.881 1.25 5.92 1.24zm-2.08-63.44c-.98-.913-1.565-2.173-1.63-3.51-.054-1.295.39-2.562 1.24-3.54l4.81-4.68c.914-1.043 2.254-1.617 3.64-1.56 1.339.107 2.591.71 3.51 1.69.951.931 1.47 2.22 1.43 3.55.03 1.33-.521 2.609-1.51 3.5l-4.55 4.55c-.876 1.06-2.207 1.64-3.58 1.56-1.285-.042-2.499-.605-3.36-1.56z"/></g><path d="m83.57 105.24h.01c29.437 7.598 50.166 34.356 50.166 64.758 0 30.511-20.879 57.339-50.456 64.832l.29-.07v35.02c.036 13.302-5.258 26.08-14.69 35.46l-32.76 32.76c-1.252 1.253-2.953 1.958-4.725 1.958s-3.473-.705-4.725-1.958l-14.19-14.14c-2.594-2.595-2.594-6.865 0-9.46l32.76-32.72c3.138-3.131 4.903-7.387 4.9-11.82v-35.1l.25.06c-29.544-7.522-50.386-34.336-50.386-64.822 0-30.392 20.713-57.146 50.136-64.758zm-16.71 31.33c18.451 0 33.43 14.979 33.43 33.43s-14.979 33.43-33.43 33.43-33.43-14.979-33.43-33.43 14.979-33.43 33.43-33.43zm16.71-31.33h-33.42v-35.06c-.003-13.296 5.286-26.061 14.69-35.46l32.76-32.72c1.252-1.253 2.953-1.958 4.725-1.958s3.473.705 4.725 1.958l14.19 14.14c2.594 2.595 2.594 6.865 0 9.46l-32.77 32.76c-3.137 3.132-4.901 7.387-4.9 11.82z"/></g></svg>