<svg viewBox="0 0 1228.99 340" xmlns="http://www.w3.org/2000/svg"><g fill="#30364b"><path d="m922.77 202.48a26 26 0 0 1 9.75 1.88 23.41 23.41 0 0 1 8.19 5.53 22.7 22.7 0 0 1 5.72 8.19 26 26 0 0 1 1.82 9.75v13.26a24.6 24.6 0 0 1 -2 9.94 26.09 26.09 0 0 1 -5.46 8.06 25.17 25.17 0 0 1 -18 7.35 26.93 26.93 0 0 1 -8.12-1.24 23.06 23.06 0 0 1 -7.09-3.57v21.37a4.72 4.72 0 0 1 -1.43 3.57 5.06 5.06 0 0 1 -3.64 1.37 5.28 5.28 0 0 1 -3.7-1.37 4.6 4.6 0 0 1 -1.5-3.57v-75.4a4.77 4.77 0 0 1 1.5-3.71 5.27 5.27 0 0 1 3.7-1.36 5.05 5.05 0 0 1 3.64 1.36 4.9 4.9 0 0 1 1.43 3.71 24.36 24.36 0 0 1 15.19-5.12zm15.34 25.35a15 15 0 0 0 -1.17-5.72 16.24 16.24 0 0 0 -3.25-5.07h.13a15.26 15.26 0 0 0 -11.05-4.42 14.67 14.67 0 0 0 -10.77 4.38 15.24 15.24 0 0 0 -4.42 10.79v13.26a14.34 14.34 0 0 0 1.22 5.95 16.33 16.33 0 0 0 3.25 4.88 14.9 14.9 0 0 0 4.81 3.31 14.34 14.34 0 0 0 5.91 1.24 14.72 14.72 0 0 0 6.05-1.24 15.85 15.85 0 0 0 4.87-3.31 15 15 0 0 0 3.25-4.88 15.13 15.13 0 0 0 1.17-5.91z"/><path d="m1008.31 261.37a4.66 4.66 0 0 1 -1.56 3.7 5.05 5.05 0 0 1 -3.38 1.37c-2.52 0-4.2-1-5.07-3.12a19.92 19.92 0 0 1 -11.3 3.12h-6.24a21.28 21.28 0 0 1 -8.32-1.63 20.91 20.91 0 0 1 -6.83-4.55 22 22 0 0 1 -4.61-6.76 20.47 20.47 0 0 1 -1.69-8.38v-37.57a4.68 4.68 0 0 1 1.56-3.71 5.19 5.19 0 0 1 3.51-1.36 5.07 5.07 0 0 1 3.64 1.36 4.9 4.9 0 0 1 1.43 3.71v37.57a10.37 10.37 0 0 0 .91 4.35 12.08 12.08 0 0 0 6 6.05 10.45 10.45 0 0 0 4.36.91h6.28a10.79 10.79 0 0 0 7.73-3.19 10.17 10.17 0 0 0 3.32-7.6v-38.09a4.68 4.68 0 0 1 1.56-3.71 5.51 5.51 0 0 1 3.77-1.36 5 5 0 0 1 3.38 1.36 4.68 4.68 0 0 1 1.56 3.71zm-27.56-68.37a5.08 5.08 0 0 1 -1.62-3.51 5 5 0 0 1 1.23-3.51l4.81-4.68a4.61 4.61 0 0 1 3.64-1.56 5.4 5.4 0 0 1 3.51 1.69 4.77 4.77 0 0 1 1.43 3.51 4.57 4.57 0 0 1 -1.56 3.51l-4.55 4.55a4.32 4.32 0 0 1 -3.58 1.56 4.75 4.75 0 0 1 -3.31-1.56z"/><path d="m1049.39 202.48a26.54 26.54 0 0 1 9.94 2 24.29 24.29 0 0 1 8.52 5.72 22.76 22.76 0 0 1 5.78 8.45 27.13 27.13 0 0 1 1.89 10v11.83a27.13 27.13 0 0 1 -1.89 10 23.89 23.89 0 0 1 -5.78 8.58v-.13a27.22 27.22 0 0 1 -8.45 5.52 25.58 25.58 0 0 1 -10 2h-14.7l-2.34.13a5.49 5.49 0 0 1 -1.95-.46 5.18 5.18 0 0 1 -1.82-1.1 5.68 5.68 0 0 1 -1.3-3.51v-86.46a5.08 5.08 0 1 1 10.14 0v27.43zm15.86 26.13a15.8 15.8 0 0 0 -4.55-11.44 15.49 15.49 0 0 0 -5.07-3.38 16.35 16.35 0 0 0 -6.24-1.17h-12v43.81h12a15 15 0 0 0 11.18-4.81 14.29 14.29 0 0 0 3.51-5.14 16.11 16.11 0 0 0 1.17-6z"/><path d="m1090.86 170a5 5 0 0 1 3.38 1.36 4.68 4.68 0 0 1 1.56 3.71v86.19a4.66 4.66 0 0 1 -1.56 3.7 5.05 5.05 0 0 1 -3.38 1.37 5.49 5.49 0 0 1 -3.84-1.37 4.78 4.78 0 0 1 -1.49-3.7v-86.21a4.8 4.8 0 0 1 1.49-3.71 5.48 5.48 0 0 1 3.84-1.34z"/><path d="m1111 198.84a4.61 4.61 0 0 1 -3.58-1.5 5.27 5.27 0 0 1 -1.36-3.7 5 5 0 0 1 1.36-3.71 4.83 4.83 0 0 1 3.58-1.36 5.27 5.27 0 0 1 3.7 1.36 4.77 4.77 0 0 1 1.5 3.71 5.12 5.12 0 0 1 -5.2 5.2zm5.2 62.4a4.75 4.75 0 0 1 -1.5 3.7 5.28 5.28 0 0 1 -3.7 1.37c-3.3 0-4.94-1.69-4.94-5.07v-53.69a5 5 0 0 1 1.36-3.71 4.83 4.83 0 0 1 3.58-1.36 5.27 5.27 0 0 1 3.7 1.36 4.77 4.77 0 0 1 1.5 3.71z"/><path d="m1151.18 212.62a14.57 14.57 0 0 0 -5.92 1.23 15.27 15.27 0 0 0 -8.06 8.06 14.57 14.57 0 0 0 -1.23 5.92v13.26a14.49 14.49 0 0 0 1.23 5.91 16.72 16.72 0 0 0 3.25 4.88 15.12 15.12 0 0 0 4.81 3.31 14.42 14.42 0 0 0 5.92 1.24h11a5.07 5.07 0 0 1 3.64 1.36 4.74 4.74 0 0 1 1.43 3.58 4.88 4.88 0 0 1 -1.43 3.7 5.08 5.08 0 0 1 -3.64 1.37h-11a25.74 25.74 0 0 1 -10-1.95 24.78 24.78 0 0 1 -13.53-13.49 25.25 25.25 0 0 1 -2-9.94v-13.23a25 25 0 0 1 2-9.82 25.28 25.28 0 0 1 5.35-8.01 26.06 26.06 0 0 1 8.13-5.46 25.07 25.07 0 0 1 10-2h11a5.07 5.07 0 0 1 3.64 1.36 5.44 5.44 0 0 1 0 7.35 5 5 0 0 1 -3.64 1.43z"/><path d="m418.55 256.32a5.2 5.2 0 0 1 3.51 1.37 4.52 4.52 0 0 1 1.56 3.57 4.65 4.65 0 0 1 -1.56 3.7 5.15 5.15 0 0 1 -3.51 1.37h-5.72a25.77 25.77 0 0 1 -10-1.95 24.9 24.9 0 0 1 -8.13-5.38 26 26 0 0 1 -5.46-8.06 24.48 24.48 0 0 1 -2-10v-65.87a4.75 4.75 0 0 1 1.5-3.7 5.28 5.28 0 0 1 3.7-1.37 5.2 5.2 0 0 1 3.51 1.37 4.66 4.66 0 0 1 1.56 3.7v27.3h16.77a5 5 0 0 1 3.64 1.37 5.1 5.1 0 0 1 -3.64 8.77h-16.79v28.49a15.21 15.21 0 0 0 4.42 10.79 15.78 15.78 0 0 0 4.88 3.31 14.67 14.67 0 0 0 6 1.24z"/><path d="m461.19 202.37a4.84 4.84 0 0 1 3.58 1.37 5.63 5.63 0 0 1 0 7.34 4.69 4.69 0 0 1 -3.58 1.43h-8.32a11.58 11.58 0 0 0 -4.22.78 9 9 0 0 0 -3.45 2.34 11.34 11.34 0 0 0 -3.38 7.8v37.83a4.76 4.76 0 0 1 -1.49 3.7 5.34 5.34 0 0 1 -7.15 0 4.55 4.55 0 0 1 -1.63-3.7v-53.82a4.56 4.56 0 0 1 1.63-3.7 5.41 5.41 0 0 1 6.5-.53 5.47 5.47 0 0 1 1.88 2.28 21.15 21.15 0 0 1 11.31-3.12z"/><path d="m503.05 202.37a16.27 16.27 0 0 1 6 1.17 14.94 14.94 0 0 1 5.2 3.38 15.9 15.9 0 0 1 4.55 11.31v43a5 5 0 0 1 -1.36 3.7 4.82 4.82 0 0 1 -3.58 1.37q-3.77 0-5.07-3a21.19 21.19 0 0 1 -11.18 3h-6a21.49 21.49 0 0 1 -8.32-1.62 20.81 20.81 0 0 1 -6.76-4.49 21.69 21.69 0 0 1 -4.55-6.76 20.8 20.8 0 0 1 -1.69-8.32 21.22 21.22 0 0 1 1.56-8.19 20.72 20.72 0 0 1 4.55-6.76 21.3 21.3 0 0 1 15.21-6.16h13.26a3.84 3.84 0 0 0 2.86-1h-.13a4.1 4.1 0 0 0 .91-3v-1.69a5.37 5.37 0 0 0 -1.56-4.16 5 5 0 0 0 -3.9-1.56h-23.14a5.11 5.11 0 0 1 -3.7-1.43 5.24 5.24 0 0 1 0-7.34 5.28 5.28 0 0 1 3.7-1.37zm2.21 50.7a10.5 10.5 0 0 0 3.25-7.93v-11.31a7.34 7.34 0 0 1 -1.69.33c-.6 0-1.26.06-1.95.06h-13.26a10.78 10.78 0 0 0 -7.86 3.12 10.45 10.45 0 0 0 -3.19 7.8 11.08 11.08 0 0 0 .85 4.36 10.65 10.65 0 0 0 2.34 3.5 11.6 11.6 0 0 0 3.51 2.41 10.37 10.37 0 0 0 4.35.91h6a10.93 10.93 0 0 0 4.23-.84 9.77 9.77 0 0 0 3.42-2.41z"/><path d="m560.25 202.37a20.63 20.63 0 0 1 8.32 1.69 22.61 22.61 0 0 1 6.83 4.55 21.13 21.13 0 0 1 4.61 6.76 20.67 20.67 0 0 1 1.69 8.32v37.57a4.65 4.65 0 0 1 -1.56 3.7 5 5 0 0 1 -3.38 1.37 5.4 5.4 0 0 1 -3.83-1.37 4.74 4.74 0 0 1 -1.5-3.7v-37.57a10.45 10.45 0 0 0 -.91-4.36 11.62 11.62 0 0 0 -5.91-5.91 10.61 10.61 0 0 0 -4.36-.91h-8.06a10.5 10.5 0 0 0 -7.73 3.19 11.46 11.46 0 0 0 -3.45 7.73v37.83a4.87 4.87 0 0 1 -1.43 3.7 5 5 0 0 1 -3.64 1.37 5.23 5.23 0 0 1 -3.7-1.37 4.74 4.74 0 0 1 -1.5-3.7v-53.82a4.75 4.75 0 0 1 1.5-3.7 5.28 5.28 0 0 1 3.7-1.37c2.51 0 4.12 1.09 4.81 3.25a20.79 20.79 0 0 1 11.44-3.25z"/><path d="m629.93 241.89a14 14 0 0 1 .13 20.28 13.09 13.09 0 0 1 -10 4.16h-23.93a4.79 4.79 0 0 1 -3.57-1.37 5 5 0 0 1 -1.37-3.7 4.7 4.7 0 0 1 4.94-4.94h23.92a3.5 3.5 0 0 0 1.63-.45c.56-.31 1.1-.59 1.62-.85a3.05 3.05 0 0 0 .65-1.36 7.45 7.45 0 0 0 .13-1.37 6.1 6.1 0 0 0 -1-3.12q-6.37-5.46-12.87-11.11t-12.74-11.25a13.93 13.93 0 0 1 -4.42-10.4 13.14 13.14 0 0 1 1.17-5.46 16.7 16.7 0 0 1 3-4.55 13.28 13.28 0 0 1 10.14-4.16h20.8a5.32 5.32 0 0 1 3.71 1.37 4.63 4.63 0 0 1 1.49 3.57 5 5 0 0 1 -1.49 3.84 5.31 5.31 0 0 1 -3.71 1.36h-20.8a4.05 4.05 0 0 0 -3 1.17 4.5 4.5 0 0 0 -1 2.86q0 2.09.78 2.73.13.13 6.63 5.79t19.16 16.96z"/><path d="m671.4 202.37a26 26 0 0 1 9.75 1.88 23.55 23.55 0 0 1 8.19 5.53 22.7 22.7 0 0 1 5.72 8.19 26 26 0 0 1 1.82 9.75v13.28a24.64 24.64 0 0 1 -2 10 26.33 26.33 0 0 1 -5.46 8.06 25.22 25.22 0 0 1 -18 7.34 27.24 27.24 0 0 1 -8.12-1.23 23.31 23.31 0 0 1 -7.09-3.58v21.32a4.76 4.76 0 0 1 -1.43 3.58 5.05 5.05 0 0 1 -3.64 1.36 5.27 5.27 0 0 1 -3.7-1.36 4.64 4.64 0 0 1 -1.5-3.58v-75.4a4.75 4.75 0 0 1 1.5-3.7 5.28 5.28 0 0 1 3.7-1.37 5.06 5.06 0 0 1 3.64 1.37 4.88 4.88 0 0 1 1.43 3.7 24.36 24.36 0 0 1 15.19-5.14zm15.34 25.35a15 15 0 0 0 -1.17-5.72 16.35 16.35 0 0 0 -3.25-5.07h.13a15.3 15.3 0 0 0 -11.05-4.42 14.71 14.71 0 0 0 -10.79 4.42 15.24 15.24 0 0 0 -4.42 10.79v13.28a14.42 14.42 0 0 0 1.24 5.92 16.41 16.41 0 0 0 3.25 4.87 14.9 14.9 0 0 0 4.81 3.31 14.34 14.34 0 0 0 5.91 1.24 14.72 14.72 0 0 0 6.05-1.24 15.85 15.85 0 0 0 4.87-3.31 15 15 0 0 0 3.25-4.87 15.21 15.21 0 0 0 1.17-5.92z"/><path d="m749.53 209.91a25.29 25.29 0 0 1 5.47 8.09 24.58 24.58 0 0 1 2 9.68v13.32a24.64 24.64 0 0 1 -2 10 26.33 26.33 0 0 1 -5.46 8.06 25 25 0 0 1 -8.13 5.39 26.16 26.16 0 0 1 -19.82 0 25.1 25.1 0 0 1 -15.48-23.45v-13.28a24.58 24.58 0 0 1 1.95-9.68 25.29 25.29 0 0 1 5.46-8.13h-.13a22.56 22.56 0 0 1 8.26-5.66 26.44 26.44 0 0 1 9.81-1.88 25.85 25.85 0 0 1 9.82 1.88 24.21 24.21 0 0 1 8.25 5.66zm-18.07 46.41a14.42 14.42 0 0 0 5.92-1.24 16.67 16.67 0 0 0 4.94-3.31 15.54 15.54 0 0 0 3.38-4.87 14.57 14.57 0 0 0 1.23-5.92v-13.26a14.82 14.82 0 0 0 -1.17-5.78 15.56 15.56 0 0 0 -3.38-5 14.87 14.87 0 0 0 -10.92-4.42 15.58 15.58 0 0 0 -10.79 4.42 15.24 15.24 0 0 0 -4.42 10.79v13.27a14.42 14.42 0 0 0 1.24 5.92 16.41 16.41 0 0 0 3.25 4.87 14.9 14.9 0 0 0 4.81 3.31 14.34 14.34 0 0 0 5.91 1.22z"/><path d="m796.72 202.37a4.85 4.85 0 0 1 3.58 1.37 5.63 5.63 0 0 1 0 7.34 4.71 4.71 0 0 1 -3.58 1.43h-8.32a11.58 11.58 0 0 0 -4.22.78 9 9 0 0 0 -3.45 2.34 11.34 11.34 0 0 0 -3.38 7.8v37.83a4.76 4.76 0 0 1 -1.49 3.7 5.34 5.34 0 0 1 -7.15 0 4.55 4.55 0 0 1 -1.63-3.7v-53.82a4.56 4.56 0 0 1 1.63-3.7 5.27 5.27 0 0 1 3.44-1.37 5.35 5.35 0 0 1 3.06.84 5.47 5.47 0 0 1 1.88 2.28 21.15 21.15 0 0 1 11.31-3.12z"/><path d="m842.22 256.32a5.2 5.2 0 0 1 3.51 1.37 4.52 4.52 0 0 1 1.56 3.57 4.65 4.65 0 0 1 -1.56 3.7 5.15 5.15 0 0 1 -3.51 1.37h-5.72a25.77 25.77 0 0 1 -10-1.95 24.9 24.9 0 0 1 -8.12-5.39 26 26 0 0 1 -5.46-8.06 24.48 24.48 0 0 1 -2-10v-65.86a4.75 4.75 0 0 1 1.5-3.7 5.28 5.28 0 0 1 3.7-1.37 5.2 5.2 0 0 1 3.51 1.37 4.66 4.66 0 0 1 1.56 3.7v27.3h16.77a5.06 5.06 0 0 1 3.64 1.37 5.1 5.1 0 0 1 -3.64 8.77h-16.8v28.49a15.21 15.21 0 0 0 1.17 5.92 15 15 0 0 0 3.25 4.87 15.78 15.78 0 0 0 4.88 3.31 14.64 14.64 0 0 0 6 1.24z"/><path d="m233.35 202.58a26.27 26.27 0 0 1 9.65 1.82 21.63 21.63 0 0 1 8 5.46 22.09 22.09 0 0 1 5.59 8.06 25.19 25.19 0 0 1 1.82 9.49v14a24.6 24.6 0 0 1 -7.34 17.68 25.87 25.87 0 0 1 -8 5.33 24.46 24.46 0 0 1 -9.75 2 25.54 25.54 0 0 1 -10.07-2 22.82 22.82 0 0 1 -8.13-5.79v27.37a3.06 3.06 0 0 1 -1 2.34 3.63 3.63 0 0 1 -4.81 0 3.07 3.07 0 0 1 -1-2.34v-80.17a3.07 3.07 0 0 1 1-2.34 3.63 3.63 0 0 1 4.81 0 3.06 3.06 0 0 1 1 2.34v4.68a.3.3 0 0 1 .2-.32.61.61 0 0 0 .32-.33 24.1 24.1 0 0 1 17.71-7.28zm18.46 24.83a17.4 17.4 0 0 0 -1.43-6.89 19.68 19.68 0 0 0 -3.9-6 17.89 17.89 0 0 0 -13.13-5.46 17.07 17.07 0 0 0 -12.87 5.46 17.85 17.85 0 0 0 -4 6 18.24 18.24 0 0 0 -1.37 6.89v14a18.05 18.05 0 0 0 1.43 7.21 19.62 19.62 0 0 0 3.9 5.86 18 18 0 0 0 5.79 4 17.57 17.57 0 0 0 7.08 1.43 17.93 17.93 0 0 0 7.22-1.43 18.64 18.64 0 0 0 9.81-9.82 17.88 17.88 0 0 0 1.43-7.21z"/><path d="m293.28 202.58a24.07 24.07 0 0 1 17.72 7.28 24.7 24.7 0 0 1 7.28 17.55v6.37a3.31 3.31 0 0 1 -3.38 3.38h-40v4.29a18.05 18.05 0 0 0 1.43 7.21 18.92 18.92 0 0 0 4 5.86 18.73 18.73 0 0 0 5.85 4 17.88 17.88 0 0 0 7.21 1.43h14.17a3.25 3.25 0 1 1 0 6.5h-14.28a24.53 24.53 0 0 1 -9.75-2 25.83 25.83 0 0 1 -8-5.33 24.56 24.56 0 0 1 -7.35-17.68v-14a25.39 25.39 0 0 1 1.82-9.49 22.34 22.34 0 0 1 5.59-8.06 23 23 0 0 1 8.06-5.46 25.75 25.75 0 0 1 9.63-1.85zm18.2 24.83a18.23 18.23 0 0 0 -1.36-6.89 17.72 17.72 0 0 0 -4-6 17 17 0 0 0 -12.87-5.46 17.74 17.74 0 0 0 -7.08 1.43 19 19 0 0 0 -9.95 10 17.58 17.58 0 0 0 -1.43 6.89v3.12h36.66z"/><path d="m333.58 168a3.29 3.29 0 0 1 2.21.91 3 3 0 0 1 1 2.34v91.65a3.13 3.13 0 0 1 -1 2.47 3.29 3.29 0 0 1 -2.21.91 3.54 3.54 0 0 1 -2.53-.91 3.22 3.22 0 0 1 -1-2.47v-91.65a3.07 3.07 0 0 1 1-2.34 3.54 3.54 0 0 1 2.53-.91z"/><path d="m781.8 91.8a4.05 4.05 0 0 1 1.88 1.82 3.55 3.55 0 0 1 .2 2.6l-20.8 57.07a3.14 3.14 0 0 1 -3.25 2.21h-4.16a3.13 3.13 0 0 1 -3.25-2.21l-20.67-57.07a3.55 3.55 0 0 1 .19-2.6 4 4 0 0 1 2-1.82 4.23 4.23 0 0 1 2.53.26 2.47 2.47 0 0 1 1.5 2l19.63 54.6 19.91-54.66a3.19 3.19 0 0 1 1.69-2 4.35 4.35 0 0 1 2.6-.2z"/><path d="m821.45 91.67a15.68 15.68 0 0 1 5.59 1 13.5 13.5 0 0 1 4.81 3.12 14.32 14.32 0 0 1 4.29 10.53v45.89a3.2 3.2 0 0 1 -.91 2.34 3.16 3.16 0 0 1 -2.34.91 3.59 3.59 0 0 1 -2.47-.91 3 3 0 0 1 -1-2.34v-2.08a19.53 19.53 0 0 1 -13.78 5.33h-6.37a19.6 19.6 0 0 1 -8-1.63 21.55 21.55 0 0 1 -6.5-4.35 20.3 20.3 0 0 1 -4.42-6.44 19.71 19.71 0 0 1 -1.62-8 20.1 20.1 0 0 1 1.56-7.87 21.82 21.82 0 0 1 4.42-6.69 20 20 0 0 1 6.63-4.42 20.5 20.5 0 0 1 7.93-1.56h14.13a6.26 6.26 0 0 0 4.42-1.69 6.09 6.09 0 0 0 1.56-4.29v-2.21a7.94 7.94 0 0 0 -2.34-5.85 8.46 8.46 0 0 0 -2.47-1.69 7.55 7.55 0 0 0 -3.12-.65h-24.57a3.56 3.56 0 0 1 -2.54-.91 3.31 3.31 0 0 1 0-4.68 3.56 3.56 0 0 1 2.54-.91h24.57zm3.77 53.3a13.51 13.51 0 0 0 4.16-9.88v-15.47a7.76 7.76 0 0 1 -2.93 1.36 14.11 14.11 0 0 1 -3.05.33h-14.17a13.78 13.78 0 0 0 -12.68 19.17 14.69 14.69 0 0 0 2.93 4.42 13.6 13.6 0 0 0 9.75 4.1h6.37a13 13 0 0 0 5.26-1.11 14 14 0 0 0 4.36-2.89z"/><path d="m853.17 57.09a3.31 3.31 0 0 1 2.21.91 3 3 0 0 1 1 2.34v91.66a3.13 3.13 0 0 1 -1 2.47 3.31 3.31 0 0 1 -2.21.91 3.56 3.56 0 0 1 -2.54-.91 3.22 3.22 0 0 1 -1-2.47v-91.66a3.06 3.06 0 0 1 1-2.34 3.56 3.56 0 0 1 2.54-.91z"/><path d="m894.11 91.67a24.07 24.07 0 0 1 17.68 7.33 24.7 24.7 0 0 1 7.28 17.55v6.37a3.33 3.33 0 0 1 -3.38 3.38h-40v4.29a18.05 18.05 0 0 0 1.43 7.21 18.8 18.8 0 0 0 9.82 9.82 18.05 18.05 0 0 0 7.21 1.43h14.17a3.25 3.25 0 1 1 0 6.5h-14.21a24.53 24.53 0 0 1 -9.75-1.95 26 26 0 0 1 -8-5.33 24.56 24.56 0 0 1 -7.36-17.73v-14a25.39 25.39 0 0 1 1.82-9.49 22.34 22.34 0 0 1 5.61-8.05 22.87 22.87 0 0 1 8.06-5.46 25.75 25.75 0 0 1 9.62-1.87zm18.2 24.83a18.23 18.23 0 0 0 -1.36-6.89 17.72 17.72 0 0 0 -4-6 17 17 0 0 0 -12.87-5.46 17.74 17.74 0 0 0 -7.08 1.45 19 19 0 0 0 -9.95 10 17.58 17.58 0 0 0 -1.43 6.89v3.12h36.66z"/><path d="m965.88 93.29a21.55 21.55 0 0 1 6.56 4.36 20.94 20.94 0 0 1 4.48 6.5 19.41 19.41 0 0 1 1.69 8.06v40a3 3 0 0 1 -1 2.34 3.29 3.29 0 0 1 -2.21.91 3.54 3.54 0 0 1 -2.53-.91 3.07 3.07 0 0 1 -1-2.34v-40a13.31 13.31 0 0 0 -1.1-5.4 14.66 14.66 0 0 0 -7.54-7.54 13.47 13.47 0 0 0 -5.4-1.1h-8.58a13 13 0 0 0 -5.33 1.1 15.2 15.2 0 0 0 -4.35 2.93 13.24 13.24 0 0 0 -3 4.35 14.87 14.87 0 0 0 -1.24 5.27v40.43a3.06 3.06 0 0 1 -1 2.34 3.63 3.63 0 0 1 -4.81 0 3.07 3.07 0 0 1 -1-2.34v-57.33a3.07 3.07 0 0 1 1-2.34 3.63 3.63 0 0 1 4.81 0 3.06 3.06 0 0 1 1 2.34v2.21a19.41 19.41 0 0 1 13.91-5.46h8.58a20.27 20.27 0 0 1 8.06 1.62z"/><path d="m1008 99.6a17.7 17.7 0 0 0 -5.85 4 19.45 19.45 0 0 0 -3.9 5.85 17.79 17.79 0 0 0 -1.43 7.09v14a18.05 18.05 0 0 0 1.43 7.21 19.45 19.45 0 0 0 3.9 5.85 17.73 17.73 0 0 0 5.85 4 18.26 18.26 0 0 0 7.15 1.43h11.7a3.38 3.38 0 0 1 2.41.91 3.31 3.31 0 0 1 0 4.68 3.38 3.38 0 0 1 -2.41.91h-11.7a24.85 24.85 0 0 1 -9.88-1.95 24.83 24.83 0 0 1 -13.27-13.29 24.46 24.46 0 0 1 -2-9.75v-14a24.15 24.15 0 0 1 2-9.62 24.87 24.87 0 0 1 23.14-15.21h11.7a3.38 3.38 0 0 1 2.41.91 3.31 3.31 0 0 1 0 4.68 3.38 3.38 0 0 1 -2.41.91h-11.7a18.26 18.26 0 0 0 -7.14 1.39z"/><path d="m1046 83.61a3.07 3.07 0 0 1 -2.34-1 3.54 3.54 0 0 1 -.91-2.53 3.12 3.12 0 0 1 3.25-3.25 3.38 3.38 0 0 1 2.41.91 3.06 3.06 0 0 1 1 2.34 3.41 3.41 0 0 1 -1 2.53 3.27 3.27 0 0 1 -2.41 1zm3.38 68.38a3.22 3.22 0 0 1 -1 2.47 3.38 3.38 0 0 1 -2.41.91c-2.16 0-3.25-1.13-3.25-3.38v-57.07a3.12 3.12 0 0 1 3.25-3.25 3.38 3.38 0 0 1 2.41.91 3.06 3.06 0 0 1 1 2.34z"/><path d="m1093.27 91.67a15.64 15.64 0 0 1 5.59 1 13.41 13.41 0 0 1 4.81 3.12 14.32 14.32 0 0 1 4.29 10.53v45.89a3.12 3.12 0 0 1 -3.25 3.25 3.63 3.63 0 0 1 -2.47-.91 3 3 0 0 1 -1-2.34v-2.08a19.51 19.51 0 0 1 -13.78 5.33h-6.37a19.55 19.55 0 0 1 -8-1.63 21.55 21.55 0 0 1 -6.5-4.35 20.14 20.14 0 0 1 -4.42-6.44 19.55 19.55 0 0 1 -1.63-8 20.1 20.1 0 0 1 1.56-7.87 21.82 21.82 0 0 1 4.42-6.69 20.23 20.23 0 0 1 6.63-4.42 20.57 20.57 0 0 1 7.93-1.56h14.17a6.23 6.23 0 0 0 4.42-1.69 6.09 6.09 0 0 0 1.56-4.29v-2.21a7.94 7.94 0 0 0 -2.34-5.85 8.2 8.2 0 0 0 -2.47-1.69 7.48 7.48 0 0 0 -3.12-.65h-24.6a3.54 3.54 0 0 1 -2.53-.91 3.28 3.28 0 0 1 0-4.68 3.54 3.54 0 0 1 2.53-.91h24.57zm3.73 53.33a13.47 13.47 0 0 0 4.16-9.88v-15.5a7.73 7.73 0 0 1 -2.92 1.36 14.2 14.2 0 0 1 -3.06.33h-14.17a13.76 13.76 0 0 0 -12.67 19.17 14.66 14.66 0 0 0 2.92 4.42 13.64 13.64 0 0 0 9.75 4.1h6.37a13 13 0 0 0 5.27-1.11 13.86 13.86 0 0 0 4.35-2.89z"/><path d="m1158.4 93.29a21.72 21.72 0 0 1 6.57 4.36 21.11 21.11 0 0 1 4.48 6.5 19.41 19.41 0 0 1 1.69 8.06v40a3 3 0 0 1 -1 2.34 3.29 3.29 0 0 1 -2.21.91 3.54 3.54 0 0 1 -2.53-.91 3.07 3.07 0 0 1 -1-2.34v-40a13.47 13.47 0 0 0 -1.1-5.4 14.66 14.66 0 0 0 -7.54-7.54 13.47 13.47 0 0 0 -5.4-1.1h-8.58a13 13 0 0 0 -5.33 1.1 15.06 15.06 0 0 0 -4.35 2.93 13.24 13.24 0 0 0 -3 4.35 14.87 14.87 0 0 0 -1.24 5.27v40.43a3.06 3.06 0 0 1 -1 2.34 3.63 3.63 0 0 1 -4.81 0 3.07 3.07 0 0 1 -1-2.34v-57.33a3.07 3.07 0 0 1 1-2.34 3.63 3.63 0 0 1 4.81 0 3.06 3.06 0 0 1 1 2.34v2.21a19.4 19.4 0 0 1 13.91-5.46h8.58a20.19 20.19 0 0 1 8.05 1.62z"/><path d="m1214.3 91.67a15.64 15.64 0 0 1 5.59 1 13.5 13.5 0 0 1 4.81 3.12 14.32 14.32 0 0 1 4.29 10.53v45.89a3.12 3.12 0 0 1 -3.25 3.25 3.61 3.61 0 0 1 -2.47-.91 3 3 0 0 1 -1-2.34v-2.08a19.51 19.51 0 0 1 -13.78 5.33h-6.37a19.6 19.6 0 0 1 -8-1.63 21.8 21.8 0 0 1 -6.5-4.35 20.28 20.28 0 0 1 -4.41-6.44 19.55 19.55 0 0 1 -1.63-8 20.1 20.1 0 0 1 1.56-7.87 21.82 21.82 0 0 1 4.42-6.69 20.23 20.23 0 0 1 6.63-4.42 20.54 20.54 0 0 1 7.93-1.56h14.17a6.25 6.25 0 0 0 4.42-1.69 6.09 6.09 0 0 0 1.56-4.29v-2.21a7.94 7.94 0 0 0 -2.34-5.85 8.33 8.33 0 0 0 -2.47-1.69 7.48 7.48 0 0 0 -3.12-.65h-24.57a3.52 3.52 0 0 1 -2.53-.91 3.28 3.28 0 0 1 0-4.68 3.52 3.52 0 0 1 2.53-.91h24.57zm3.77 53.3a13.51 13.51 0 0 0 4.16-9.88v-15.47a7.7 7.7 0 0 1 -2.93 1.36 14 14 0 0 1 -3 .33h-14.17a13.76 13.76 0 0 0 -12.67 19.17 14.66 14.66 0 0 0 2.92 4.42 13.64 13.64 0 0 0 9.75 4.1h6.37a12.93 12.93 0 0 0 5.26-1.11 13.79 13.79 0 0 0 4.31-2.89z"/><path d="m241.15 91.54a16.27 16.27 0 0 1 6 1.17 14.94 14.94 0 0 1 5.2 3.38 15.9 15.9 0 0 1 4.55 11.31v43a5 5 0 0 1 -1.36 3.7 4.84 4.84 0 0 1 -3.58 1.37q-3.76 0-5.07-3a21.19 21.19 0 0 1 -11.18 3h-6a21.32 21.32 0 0 1 -8.32-1.63 20.63 20.63 0 0 1 -6.76-4.48 21.8 21.8 0 0 1 -4.55-6.76 20.8 20.8 0 0 1 -1.69-8.32 21.19 21.19 0 0 1 1.56-8.19 20.72 20.72 0 0 1 4.55-6.76 21.19 21.19 0 0 1 15.21-6.24h13.29a3.86 3.86 0 0 0 2.86-1h-.13a4.1 4.1 0 0 0 .91-3v-1.69a5.36 5.36 0 0 0 -1.56-4.16 5 5 0 0 0 -3.9-1.56h-23.18a5.15 5.15 0 0 1 -3.7-1.43 5.25 5.25 0 0 1 0-7.35 5.27 5.27 0 0 1 3.7-1.36zm2.21 50.7a10.5 10.5 0 0 0 3.25-7.93v-11.31a6.85 6.85 0 0 1 -1.69.32c-.6.05-1.25.07-1.95.07h-13.26a10.78 10.78 0 0 0 -7.86 3.12 10.45 10.45 0 0 0 -3.19 7.8 11 11 0 0 0 .85 4.35 10.59 10.59 0 0 0 2.34 3.51 11.6 11.6 0 0 0 3.51 2.41 10.37 10.37 0 0 0 4.35.91h6a10.73 10.73 0 0 0 4.23-.85 9.62 9.62 0 0 0 3.42-2.4z"/><path d="m304.85 131.06a14 14 0 0 1 .13 20.28 13.11 13.11 0 0 1 -10 4.16h-23.93a4.83 4.83 0 0 1 -3.57-1.37 5 5 0 0 1 -1.37-3.7 4.69 4.69 0 0 1 4.94-4.94h23.95a3.4 3.4 0 0 0 1.63-.46l1.62-.84a2.93 2.93 0 0 0 .65-1.37 7.26 7.26 0 0 0 .13-1.36 6 6 0 0 0 -1-3.12q-6.36-5.46-12.87-11.12t-12.81-11.22a14 14 0 0 1 -4.42-10.4 13.14 13.14 0 0 1 1.17-5.46 16.7 16.7 0 0 1 3-4.55 13.28 13.28 0 0 1 10.14-4.16h20.76a5.29 5.29 0 0 1 3.71 1.36 4.65 4.65 0 0 1 1.49 3.58 4.93 4.93 0 0 1 -1.49 3.83 5.3 5.3 0 0 1 -3.71 1.37h-20.8a4.05 4.05 0 0 0 -3 1.17 4.5 4.5 0 0 0 -1 2.86q0 2.08.78 2.73.13.14 6.63 5.78t19.24 16.95z"/><path d="m354.38 131.06a14 14 0 0 1 .13 20.28 13.11 13.11 0 0 1 -10 4.16h-23.93a4.83 4.83 0 0 1 -3.57-1.37 5 5 0 0 1 -1.37-3.7 4.69 4.69 0 0 1 4.94-4.94h23.92a3.4 3.4 0 0 0 1.63-.46l1.62-.84a2.93 2.93 0 0 0 .65-1.37 7.26 7.26 0 0 0 .13-1.36 6 6 0 0 0 -1-3.12q-6.36-5.46-12.87-11.12t-12.78-11.22a14 14 0 0 1 -4.42-10.4 13.14 13.14 0 0 1 1.17-5.46 16.7 16.7 0 0 1 3-4.55 13.28 13.28 0 0 1 10.14-4.16h20.8a5.29 5.29 0 0 1 3.71 1.36 4.65 4.65 0 0 1 1.49 3.58 4.93 4.93 0 0 1 -1.49 3.83 5.3 5.3 0 0 1 -3.71 1.37h-20.8a4.05 4.05 0 0 0 -3 1.17 4.5 4.5 0 0 0 -1 2.86q0 2.08.78 2.73.14.14 6.63 5.78t19.2 16.95z"/><path d="m410 99.08a25.36 25.36 0 0 1 5.46 8.12 24.67 24.67 0 0 1 1.95 9.69v13.26a24.6 24.6 0 0 1 -2 9.94 26.09 26.09 0 0 1 -5.46 8.06 24.92 24.92 0 0 1 -8.13 5.4 26.16 26.16 0 0 1 -19.82 0 25 25 0 0 1 -13.46-13.46 25.25 25.25 0 0 1 -1.95-9.94v-13.26a24.67 24.67 0 0 1 1.95-9.69 25.36 25.36 0 0 1 5.46-8.12h-.13a22.56 22.56 0 0 1 8.26-5.66 26.44 26.44 0 0 1 9.87-1.88 25.85 25.85 0 0 1 9.82 1.88 24.21 24.21 0 0 1 8.18 5.66zm-18 46.41a14.42 14.42 0 0 0 5.92-1.24 16.67 16.67 0 0 0 4.94-3.31 15.47 15.47 0 0 0 3.38-4.88 14.49 14.49 0 0 0 1.23-5.91v-13.26a14.9 14.9 0 0 0 -1.17-5.79 15.52 15.52 0 0 0 -3.38-5 14.82 14.82 0 0 0 -10.92-4.42 15.54 15.54 0 0 0 -10.79 4.42 15.24 15.24 0 0 0 -4.42 10.79v13.26a14.34 14.34 0 0 0 1.24 5.91 16.33 16.33 0 0 0 3.25 4.88 14.9 14.9 0 0 0 4.81 3.31 14.34 14.34 0 0 0 5.91 1.24z"/><path d="m452.4 101.68a14.49 14.49 0 0 0 -5.91 1.23 15.27 15.27 0 0 0 -8.06 8.06 14.42 14.42 0 0 0 -1.24 5.92v13.26a14.34 14.34 0 0 0 1.24 5.91 16.33 16.33 0 0 0 3.25 4.88 14.9 14.9 0 0 0 4.81 3.31 14.34 14.34 0 0 0 5.91 1.24h11.05a5 5 0 0 1 3.64 1.36 4.71 4.71 0 0 1 1.43 3.58 4.84 4.84 0 0 1 -1.43 3.7 5 5 0 0 1 -3.64 1.37h-11.05a25.77 25.77 0 0 1 -10-1.95 24.87 24.87 0 0 1 -13.52-13.46 25.25 25.25 0 0 1 -1.95-9.94v-13.26a25.16 25.16 0 0 1 7.34-17.89 25.9 25.9 0 0 1 8.12-5.46 25.11 25.11 0 0 1 10-2h11.05a5 5 0 0 1 3.64 1.36 5.44 5.44 0 0 1 0 7.35 4.93 4.93 0 0 1 -3.64 1.43z"/><path d="m484 87.9a4.6 4.6 0 0 1 -3.57-1.5 5.28 5.28 0 0 1 -1.37-3.7 5 5 0 0 1 1.36-3.7 4.82 4.82 0 0 1 3.58-1.37 5.29 5.29 0 0 1 3.7 1.37 4.8 4.8 0 0 1 1.49 3.71 5.11 5.11 0 0 1 -5.2 5.2zm5.2 62.4a4.78 4.78 0 0 1 -1.49 3.7 5.3 5.3 0 0 1 -3.71 1.37q-4.94 0-4.94-5.07v-53.69a5 5 0 0 1 1.37-3.71 4.82 4.82 0 0 1 3.57-1.36 5.29 5.29 0 0 1 3.71 1.36 4.8 4.8 0 0 1 1.49 3.71z"/><path d="m530.27 91.54a16.31 16.31 0 0 1 6 1.17 15 15 0 0 1 5.2 3.38 16 16 0 0 1 4.53 11.31v43a5 5 0 0 1 -1.36 3.7 4.85 4.85 0 0 1 -3.58 1.37q-3.76 0-5.07-3a21.19 21.19 0 0 1 -11.18 3h-6a21.28 21.28 0 0 1 -8.32-1.63 20.63 20.63 0 0 1 -6.76-4.48 21.63 21.63 0 0 1 -4.55-6.76 20.63 20.63 0 0 1 -1.69-8.32 21.19 21.19 0 0 1 1.56-8.19 20.72 20.72 0 0 1 4.55-6.76 21.19 21.19 0 0 1 15.21-6.24h13.26a3.88 3.88 0 0 0 2.86-1h-.13a4.1 4.1 0 0 0 .91-3v-1.69a5.36 5.36 0 0 0 -1.56-4.16 5 5 0 0 0 -3.9-1.56h-23.12a5.15 5.15 0 0 1 -3.7-1.43 5.25 5.25 0 0 1 0-7.35 5.27 5.27 0 0 1 3.7-1.36zm2.21 50.7a10.5 10.5 0 0 0 3.25-7.93v-11.31a6.85 6.85 0 0 1 -1.69.32c-.6.05-1.26.07-1.95.07h-13.26a10.78 10.78 0 0 0 -7.86 3.12 10.45 10.45 0 0 0 -3.19 7.8 11 11 0 0 0 .85 4.35 10.59 10.59 0 0 0 2.34 3.51 11.6 11.6 0 0 0 3.51 2.41 10.37 10.37 0 0 0 4.35.91h6a10.76 10.76 0 0 0 4.23-.85 9.62 9.62 0 0 0 3.42-2.4z"/><path d="m581.62 101.68a14.49 14.49 0 0 0 -5.91 1.23 15.27 15.27 0 0 0 -8.06 8.06 14.42 14.42 0 0 0 -1.24 5.92v13.26a14.34 14.34 0 0 0 1.24 5.91 16.33 16.33 0 0 0 3.25 4.88 14.9 14.9 0 0 0 4.81 3.31 14.34 14.34 0 0 0 5.91 1.24h11a5 5 0 0 1 3.64 1.36 4.71 4.71 0 0 1 1.43 3.58 4.84 4.84 0 0 1 -1.43 3.7 5 5 0 0 1 -3.64 1.37h-11a25.77 25.77 0 0 1 -10-1.95 24.87 24.87 0 0 1 -13.52-13.46 25.25 25.25 0 0 1 -2-9.94v-13.26a25.16 25.16 0 0 1 7.39-17.89 25.9 25.9 0 0 1 8.12-5.46 25.11 25.11 0 0 1 10-2h11a5 5 0 0 1 3.64 1.36 5.44 5.44 0 0 1 0 7.35 4.93 4.93 0 0 1 -3.64 1.43z"/><path d="m613.21 87.9a4.6 4.6 0 0 1 -3.57-1.5 5.28 5.28 0 0 1 -1.37-3.7 5 5 0 0 1 1.37-3.7 4.82 4.82 0 0 1 3.57-1.36 5.31 5.31 0 0 1 3.71 1.36 4.8 4.8 0 0 1 1.49 3.71 5.11 5.11 0 0 1 -5.2 5.2zm5.2 62.4a4.78 4.78 0 0 1 -1.49 3.7 5.32 5.32 0 0 1 -3.71 1.37q-4.94 0-4.94-5.07v-53.69a5 5 0 0 1 1.37-3.71 4.82 4.82 0 0 1 3.57-1.36 5.31 5.31 0 0 1 3.71 1.36 4.8 4.8 0 0 1 1.49 3.71z"/><path d="m673.53 99.08a24.58 24.58 0 0 1 7.54 17.81v13.26a24.44 24.44 0 0 1 -2 9.94 25.75 25.75 0 0 1 -5.46 8.06 24.93 24.93 0 0 1 -8.06 5.4 25.57 25.57 0 0 1 -27.95-5.4 26.09 26.09 0 0 1 -5.46-8.06 24.6 24.6 0 0 1 -2-9.94v-13.26a24.67 24.67 0 0 1 1.95-9.69 27.25 27.25 0 0 1 13.81-13.78 25.53 25.53 0 0 1 9.69-1.88 24 24 0 0 1 17.94 7.54zm-17.94 46.41a13.93 13.93 0 0 0 5.85-1.24 16.86 16.86 0 0 0 4.87-3.31 15.31 15.31 0 0 0 3.38-4.88 14.34 14.34 0 0 0 1.24-5.91v-13.26a15.29 15.29 0 0 0 -4.42-10.79 15.12 15.12 0 0 0 -10.92-4.42 14.65 14.65 0 0 0 -10.79 4.42 15.24 15.24 0 0 0 -4.42 10.79v13.26a14.49 14.49 0 0 0 1.23 5.91 16.72 16.72 0 0 0 3.25 4.88 15.12 15.12 0 0 0 4.81 3.31 14.42 14.42 0 0 0 5.92 1.24zm-2.08-63.44a5.14 5.14 0 0 1 -1.63-3.51 5.07 5.07 0 0 1 1.24-3.54l4.81-4.68a4.59 4.59 0 0 1 3.64-1.56 5.4 5.4 0 0 1 3.51 1.69 4.77 4.77 0 0 1 1.43 3.55 4.57 4.57 0 0 1 -1.51 3.5l-4.55 4.55a4.32 4.32 0 0 1 -3.58 1.56 4.73 4.73 0 0 1 -3.36-1.56z"/></g><path d="m83.57 105.24v-35.06a16.7 16.7 0 0 1 4.9-11.82l32.77-32.76a6.69 6.69 0 0 0 0-9.46l-14.19-14.14a6.68 6.68 0 0 0 -9.45 0l-32.76 32.72a50.12 50.12 0 0 0 -14.69 35.46v35.06m0 0a66.89 66.89 0 0 0 .25 129.58l-.25-.06v2.1 33a16.68 16.68 0 0 1 -4.9 11.82l-32.76 32.72a6.69 6.69 0 0 0 0 9.46l14.19 14.14a6.68 6.68 0 0 0 9.45 0l32.76-32.76a49.82 49.82 0 0 0 14.69-35.46v-32.91-2.11l-.29.07a66.88 66.88 0 0 0 .29-129.59" fill="#5fc1c8"/><circle cx="66.86" cy="170" fill="#fff" r="33.43"/></svg>