<svg clip-rule="evenodd" fill-rule="evenodd" stroke-linejoin="round" stroke-miterlimit="1.41421" viewBox="0 0 1124 2148" xmlns="http://www.w3.org/2000/svg"><g fill="#5fc1c8" transform="translate(-151.599 -52.0442)"><path d="m903.84 61.92c1.366 2.313 4.033 3.327 3.84 7.2 3.094 1.866 5.608 4.313 6.721 8.16 2.265 1.095 5.7 1.02 8.159 1.92.981 1.099 2.162 1.998 2.4 3.84 4.107.736 7.651 1.034 11.04 2.88 4.693 2.556 8.017 8.056 12.48 8.64 2.729.357 4.623-1.453 7.199-1.44 3.742.019 5.23 2.252 9.12 3.36 2.543-.806 2.317-3.373 4.8-4.8 5.929-3.408 17.523-1.907 24.48-.96 1.811 1.917.477 3.82 1.439 6.24 1.813 4.551 7.182 6.994 2.881 13.92 1.185 3.215 4.771 7.886 9.121 7.2 4.62-.729 7.15-11.919 11.52-14.88 1.34-.906 4.33-1.344 6.24-2.4 5.2-2.881 11.76-8.311 15.84-9.12 8.35-1.656 12.42 5.184 19.2 4.8 4.21-.239 5.25-3.393 11.52-3.36 2.87-2.19 1.28-7.011 4.8-8.16 4.15-1.352 6.26 2.103 9.12 4.32 2.56-2.852 7.35-1.937 9.12.96 2.84-2.443 5.31-5.251 11.04-4.8 3.1 5.22 4.71 11.928 8.64 16.32.19 2.046-.46 4.945.48 6.24 6.12.364 6.98-4.54 11.52-5.76 4.64 3.036 9.67 5.686 13.44 9.6 3.92.178 6.76 1.837 7.2 4.32.35 1.994-3.89 10.108-5.76 12.96-1.51 2.291-3.67 3.098-4.32 4.32-.43 4.049-2.41 6.547-3.84 9.6.55 2.928 1.32 5.157 0 7.68 2.88 4.477 9.11 5.609 11.04 11.04 1.55-.692 4.02-.454 6.24-.479 5.28 4.335 10.41 8.795 19.2 10.08 1.39.203 2.92-.293 4.32 0 4.41.929 10.23 4.649 14.88 4.32 1.92-.136 3.42-2.065 5.28-2.4 5.49-.994 10.12 2.753 14.88 1.92 2.54.816 3.03 3.69 2.88 7.2 1.03 1.051 2.64 1.517 4.8 1.44 3.77 5.51 13.3 5.264 18.24 9.6-.92 4.362-3.86 6.708-6.24 9.6-.02 5.78 1.98 9.54 2.88 14.4 10.79 3.925 20.92 8.521 32.16 12 5.76-.216 10.29.946 11.04 4.32.93 4.2-5.61 13.256-4.8 18.24-11.33 4.512-9.56 22.124-21.6 25.92-.11 3.092-1.54 4.865-.96 8.64-2.32 1.81-1.71 4.61-3.36 7.2-2.01 3.142-6.17 4.66-7.68 8.16-2.11 4.875-.57 12.36-6.72 13.44-.62 7.984-5.36 13.132-8.16 19.68-1.55 3.614-1.12 7.772-2.4 11.52-.82 2.374-3.98 4.44-3.36 7.68-4.65 3.347-6.39 9.613-7.2 16.8-10.95 1.694-9.94 15.346-18.72 19.2-.89 4.072.28 10.205-1.44 13.439-1.23 1.653-5.42.338-7.2 1.44-2.95 1.672-1.05 4.89-1.92 7.2-1.76 4.653-7.56 7.447-11.04 10.08-1.25 2.754-1.58 6.423-3.84 8.16-2.93-.208-4.56.881-6.72 1.44-1.46.783-1.01 3.475-1.92 4.8-10.94 3.846-5.61 26.003-14.88 32.16-2.37 1.57-5.2 1.227-8.16 2.4-6.19 2.454-19.18 12.676-24 18.72-2.58 3.235-5.84 8.004-7.68 12-2.08 4.51-2.57 9.804-4.8 14.4-2.9 5.983-10.1 11.599-9.6 21.12-5.41 4.519-4.49 14.494-5.28 22.56-1.04 1.523-3.2 1.926-5.28 2.4-2.72 5.764-5.04 11.918-10.08 15.36-4.39-2.04-6.15 2.669-9.6 3.36-3.05.61-5.61-1.561-8.64-.96-3.59.711-7.4 6.599-10.56 8.64-4.56 2.943-8.04 4.918-11.04 8.16 1.7 8.418-3.65 14.288-5.28 20.16-1.83 6.568-3.02 17.899-6.24 23.52-1.1 1.906-3.8 2.933-4.8 4.8-2.51 4.683-2.07 10.817-5.76 14.88-2.78 13.089-2.89 26.329-11.043 34.56-4.991 5.038-14.695 6.954-15.36 16.8-5.719 2.12-8.197 8.321-12.96 11.52-1.451.975-3.344.981-4.8 1.92-4.127 2.662-6.335 7.468-9.6 11.04-2.253 15.692-14.266 25.465-19.681 39.36-.653 1.678-.354 3.641-.96 5.28-1.259 3.407-4.475 6.68-6.72 10.08-2.261 3.423-3.801 7.469-5.76 10.56-4.117 6.493-10.106 12.133-12.96 19.68-1.67 4.416-1.801 9.574-2.88 14.4-1.146 5.124-4.012 9.754-4.801 15.36-.641 4.557.912 10.771-.479 16.32-.753 3.001-5.515 7.633-7.2 10.56-1.374 2.386-2.429 5.378-4.32 7.2-3.094 2.98-12.497 7.32-14.88 11.52-.645 1.136-.289 3.493-.96 5.28-.704 1.876-2.784 3.129-3.84 5.28-2.884 5.875-4.509 13.952-5.76 22.08-1.562 10.144-8.075 16.202-12.48 24-2.111 3.739-3.463 8.608-5.76 12.48-4.25 7.165-7.297 10.812-6.24 21.6-3.123 3.979-4.45 9.896-3.359 18.72.6 4.85 3.162 8.9 2.399 13.92-.92 6.05-4.451 9.22-5.279 17.28-.357 3.47-.856 7.91-.48 10.08.338 1.95 2.035 2.86 2.88 4.8 2.594 5.94 1.6 13.3 2.88 19.68.742 3.7 2.998 7.75 4.32 12 4.394 14.12 8.407 30.76 15.84 41.76 1.406 8.35 5.983 14.78 10.08 23.52 4.738 10.11 9.063 19.72 14.88 29.28 1.901 3.12 4.467 5.91 5.76 8.64 3.702 7.81 4.31 15.95 8.16 21.12 1.299 1.74 6.957 3.31 7.681 5.76 1.737 5.88-6.922 9.79-12 8.64-.627 2.57-.773 5.63-1.921 7.68 2.572 8.37 1.621 15.27 3.841 25.44 1.516 6.95 6.773 13.72 10.08 21.6 3.274 7.81 5.813 15.82 9.119 22.08 5.464 10.35 9.38 21.36 16.32 30.72 3.403 4.59 6.452 9.53 9.12 14.4 2.791 5.11 6.095 9.3 9.12 13.92 3.223 4.92 5.333 10.47 9.12 14.4 2.81 2.92 5.902 4.93 8.64 8.16 2.503 2.96 5.427 5.76 8.16 8.64 9.952 10.49 19.313 20.16 30.243 30.24 4.74 4.38 10.81 7.27 15.36 11.52 4.23 3.96 8.68 8.34 14.88 11.04 9.9.12 16.07-3.93 21.6 2.4 5.43-1.42 15.96-1.34 23.04.96 5.91 1.92 10.36 6.82 18.72 6.72-.54 3.85 3.35 9.72 7.68 10.56 3 .58 5.9-1.55 9.12-.96 3.23.6 7.25 6.82 12.48 10.08 6.14 3.84 15.59 4.95 19.2 11.52-1.86 3.7-7.26 4.14-7.2 8.64.02 2.17 2.67 3.47 3.84 6.24.92 2.21.57 5.32 1.44 6.72 1.03 1.67 2.9 1.63 5.28 3.36 3.73 2.72 7.71 7.35 14.4 6.72.55 3.27-.85 4.59-.96 7.2 6.24 3.8 7.99 14.21-.48 16.8-18.86-3.56-22.28 11.35-31.68 18.72-1.16 8.46-8.29 26.88-15.36 13.44-5.06.56-8.41 7.23-12.48 9.12-1.34.62-2.86.04-4.32.48-9.63 2.93-11.25 13.48-16.8 21.6 1 4.12 3 7.24 4.32 11.04-10.68 4.12-12.75-9.02-24.48-5.28-3.57 1.64-2.69 9.82-6.72 11.04-3.36 1.02-8.45-3.11-12-3.36-5.38-.38-14.53.9-17.76 3.84-3.92 3.57-5.98 11.64-8.64 16.32-2.21 3.88-6.4 5.98-8.64 9.6-.54.86-4.299 7.54-3.84 9.6.93 4.24 9.5 2.75 8.16 9.6-.95 4.83-10.269 5.99-11.525 11.04-.148 1.91 1.108 2.42.96 4.32-3.475 7.09-13.161 7.96-15.84 15.84-9.161 1.17-9.143-6.85-15.84-8.16-3.423 2.69-9.1 3.04-12.48 0-2.895 1.91-5.812 3.79-9.12 5.28.191 9.97-12.309 7.7-21.12 10.56-4.142 1.35-5.417 4.07-8.64 5.76-2.005.25-3.252-.26-4.32-.96-3.765 2.48-7.146 5.34-11.04 7.68-14.485-.56-18.717 9.13-30.72 11.04-3.701 2.7-7.328 5.48-12 7.2-4.544 11.3-18.956 12.73-25.439 22.08-3.951 1.94-9.507 3.11-11.521 7.2-.873 1.78-.3 4.45-.96 6.24-2.075 5.64-6.711 9.45-9.12 13.92.815 4.54.96 11.16-1.439 13.92.531 6.96-.93 12.55.479 17.76 1.013 3.75 5.37 6.54 3.36 10.56-6.737 1.93-16.806-.23-22.561-2.39-1.455-1.75-1.201-5.2-3.359-6.24-3.452-.28-3.785 3.64-5.76 5.28-4.206 3.47-10.199 4.98-14.4 8.63-.583 1.89.073 3.6-1.44 5.29-2.204 1.29-6.78 1.2-9.6.47-4.647 3.2-3.266 12.42-6.72 16.81-3.188 14.39-1.192 29.77.48 45.6 1.761 16.65 9.216 34.74-2.88 44.64-3.941-1.37-7.604 1.74-10.08 1.92-4.952.35-11.936-2.89-17.28-2.88-14.88 0-21 9.67-26.88 20.15-4.481 8-6.135 14.29-9.6 23.53 2.581 3.69 1.495 10.22-1.92 12-.144 4.97.052 10.29-2.4 12.96.753 18.05-3.263 36.58-1.44 56.16.534 5.72 5.985 11.35-.48 14.88.027 1.57 1.365 1.83.96 3.84-2.62 7.9-9.468 15.73-18.72 13.92-3.828 1.13-6.333 3.58-8.64 6.24 2.141 8.06-3.332 12.22-3.84 19.2-1.397 1-3.587 1.21-5.28 1.92-2.106 6.69-1.38 16.22-4.8 21.6-3.769-.36-4.274.76-8.64 1.44-.801 4.64-3.975 6.9-6.24 10.08-.742 7.89.59 17.87-4.8 21.12-.312 4.31.421 7.57.48 11.52-3.653 3.44-10.606 8.87-13.44 1.44-7.649-.19-9.973-5.71-14.4-9.12-6.4.02-8.09-4.5-14.88-2.88-3.741-5.06-11.94-5.66-12.48-13.92-5.452-.71-6.219-3.81-10.08-8.16-3.156-3.56-6.243-5.14-6.72-10.56-5.475-7.65-17.768-8.48-19.68-19.69-3.538-2.86-5.541-7.25-8.64-10.56-1.096-6.58-5.816-9.54-6.72-16.32-5.841-2.63-5.574-11.38-11.52-13.91-2.251-7.83-5.632-14.53-11.52-18.73-.02-1.58-.81-2.39-.48-4.31-9.396-8.69-12.453-23.71-24.48-29.77-.576-5.66-5.681-6.79-4.8-13.92-.045-1.87-2.343-1.49-2.4-3.35.895-4.91 1.624-12.41.48-17.77-3.432-1.47-2.518-3.44-3.36-9.12-.28-1.88-1.475-3.59-1.44-4.32.177-3.64 4.127-5.75 3.36-9.11 1.195-1.21 3.604-1.2 4.8-2.4 1.04-3.76 3.085-6.52 5.76-8.64 1.775-4.79 3.526-9.6 6.72-12.96-1.417-11.2 6.652-15.55 8.64-23.53 1.479-5.93 1.885-12.96 2.88-21.11 4.984-6.44 8.586-13.06 6.72-23.04-.318-1.71-2.032-3.09-2.4-4.81-.28-1.3.343-2.72 0-3.84-2.587-8.42-11.68-14.07-10.56-24.48-5.283-2.39-9.141-6.21-13.44-9.6-2.276-.24-4.458-.5-6.72-1.44-2.332-.96-4.601-2.55-7.68-3.35-1.367-.36-2.637.36-3.84 0-1.968-.61-3.905-2.49-6.24-2.89-8.177-1.37-17.081 2.54-20.16-4.8 2.278-4.38-1.823-7.2-2.4-10.56-.833-4.85.771-11.01.48-17.27-.279-5.99.208-12.03 0-18.24-.046-2.29 2.203-2.28 2.4-4.32-.827-3.26-.651-7.02 1.44-8.64-3.583-.6-6.742-3.58-4.8-8.17 1.825-2.26 4.265-1.12 6.24-1.91 7.785-3.12 8.818-14.45 17.28-14.89 2.572-2.38 4.217-5.7 7.68-7.2-.236-8.53 10.774-11.15 10.56-18.72-.084-2.98-2.393-4.58-4.32-6.72-1.508-17.22 4.625-34.15 11.04-46.56-4.295-12.66-5.31-28.61-9.12-41.76-6.224-1.33-7.709-11.03-4.8-17.28-8.337-8.12-16.481-14.39-25.44-24-2.447-2.62-5.515-5.72-8.16-8.16-2.949-2.72-7.703-4.22-9.6-6.72-3.594-4.73-2.268-13.46-2.88-19.68 2.636-4.08 12.787-.65 14.88-5.28 5.821-.38 10.512 2.73 16.32 1.44 1.758-.39 2.586-2.08 4.32-2.88 2.93-1.34 6.645-1.91 10.08-3.36 3.518-1.47 7.116-1.66 10.08-2.88 2.181-.89 3.605-3.28 5.76-4.32 5.541-2.65 12.176-3.26 16.8-6.72 1.323-8.91 11.742-8.73 18.24-12.48-2.301-7.41-2.99-22.27 3.36-25.44-5.294-2.54-2.99-12.69-6.72-16.8-.044-6.6-.711-13.83 2.88-16.8-1.311-7.03-.26-13.81 3.36-17.28-2.517-2.38-5.356-2.2-7.68-3.84-9.707-6.82-9.55-21.05-14.4-32.64-3.58.71-4.341 2.2-7.2 1.92-4.182-.4-9.403-6-13.92-4.8-2.808.75-2.827 6.34-5.28 8.16-.759.57-2.125.18-4.32.96-3.036 1.08-9.771 5.09-12.96 0-2.612 4.13-6.855 2.2-12.48 2.88-1.932.24-3.686 2.02-5.76 2.4-3.751.7-7.082-.51-11.04 0-3.254 3.54-10.913.86-17.28 1.44-4.711.43-11.637 4.39-14.88-1.44-.02-1.58-.81-2.39-.48-4.32-3.485-4.35-6.482-9.19-8.64-14.88-3.782-3.74-8.204-6.83-10.08-12.48-2.813-2.94-7.202-4.31-7.2-10.08-7.573-1.1-7.578-7.15-11.04-13.92-2.549-4.98-5.87-8.09-9.12-12.96-9.412-2.42-13.236-10.44-22.08-13.44-1.169-10.94-1.311-24.97 6.24-28.8.403-6.32-3.115-8.72-2.4-15.35 2.2-3.08 6.059-4.51 10.08-5.77-.036-6.35 3.41-10.89 4.32-15.36 1.261-6.18-.146-12.01 2.88-15.83 3.089-3.91 8.474-3.47 11.52-8.17 3.319-5.11 2.794-12.29 8.16-17.28-.319-9.93 6.479-15.99 8.16-25.43-1.066-10.14 1.222-19.44.48-29.28-.296-3.94-1.853-7.14-1.44-10.57.735-6.1 6.764-12.41 6.24-17.27-.521-4.84-6.324-4.81-9.6-6.24-3.062 1.46-9.347 3.03-12.96.96-.928-1.8-1.146-4.3-.96-7.2-3.229.95-3.479 6.1-10.08 5.28-1.679-.21-2.182-1.91-3.84-2.4-3.444-1.02-7.664.85-9.6-1.44-2.271.19-1.536-2.63-2.88-3.36-2.528-.13-3.257 1.54-6.24.96-1.639-1.08-2.682-2.76-3.36-4.8-2.666 1.65-3.211 5.43-8.16 4.8-1.59-.65-1.802-2.68-2.4-4.32-2.27.19-4.006-.16-5.76-.48-2.625-3.94-6.559-6.56-13.44-6.24.288 6.32-12.35 12.91-12.96 2.88-3.238-.44-5.256-2.11-8.16-2.88-.831-7.01-8.489-7.19-15.36-8.16-1.8-2.06-.937-6.51.96-7.68-3.433-.59-5.652 2.18-8.64.48-1.35-.91-1.288-5.19-.48-6.72-2.863.43-4.979-1.39-7.2-2.88 2.183 9.74-5.573 16.65-12 10.56-.283-2.05.345-3.18.48-4.8-2.93.75-.763 6.6-3.36 7.68-4.504.65-10.394 1.49-11.52-1.92-1.183-3.58 3.601-5.34 2.88-9.6-1.242-.44-5.053 2.19-7.68.48-1.998-6.29.913-11.47 4.32-13.92-2.731 1.69-6.328 5.38-10.08 1.92-.509-1.12-1.845-3.89-.48-5.28-4.048-1.23-4.451-6.11-5.28-10.56-3.999 5.93-13.146.71-8.64-8.64-1.603-1.6-5.767-.64-7.68-1.92.19-4.54-2.394-6.17-5.28-8.64-.375-2.14.639-2.88.48-4.8-1.688-.71-3.577-1.22-4.32-2.88-.34-2.58.547-3.94.96-5.76 3.561-.76 5.809-2.83 9.12-3.84 1.361-9.92.303-14.13-.96-23.52 1.38-1.34 2.048-3.39 4.8-3.36-.447-2.61-1.932-4.39-1.92-7.202.004-1.014 1.065-2.365.96-3.36-.151-1.424-1.466-2.636-1.44-4.32.069-4.545 3.963-9.182 1.44-13.92-1.897-.091-6.282.054-7.68-1.92-2.074-7.92 6.041-9.575 10.56-12.48.71-4.641 3.152-8.889 7.68-10.08 1.933-.508 3.848.382 5.76 0 3.032-.606 4.285-3.755 7.2-3.84 3.763-4.107 4.779-9.78 6.72-15.36 1.785-5.134 5.333-9.537 7.2-14.4 3.149-8.204 3.364-15.578 6.24-21.6 2.476-5.185 7.12-11.193 12-15.36 3.746-3.198 8.797-6.77 14.4-9.6 2.488-2.531 4.599-7.65 10.56-7.2 2.132.161 2.596 1.604 4.32 2.4 2.66 1.229 6.458 2.009 10.08 3.84 7.248 3.667 10.497 5.251 21.12 4.32 1.743-.153 4.892.119 6.72-.48 6.642-2.174 8.889-8.842 13.44-14.88-4.687-4.753-6.461-12.419-5.76-22.56-7.662-8.879 4.998-16.088 5.28-25.92 10.67-8.85 17.147-21.893 24.48-34.08-.001-1.919-.959-2.881-.96-4.8 3.494-3.866 2.893-11.827 2.88-19.2 2.376-3.727 5.384-6.143 5.28-11.04-.048-2.266-2-4.072-1.92-6.24.079-2.151 2.246-3.592 2.88-5.76 2.375-8.123-1.764-17.943-.48-27.84-1.146-4.768-9.395-11.302-9.12-16.8.099-1.974 2.039-2.32 3.84-5.28.922-1.516.585-2.866 1.44-3.84 3.55-4.042 12.521-5.609 20.16-9.12 10.446-4.8 18.457-15.31 25.92-4.32 1.097-2.423 1.479-5.562 3.84-6.72 5.994.476 11.587-.518 15.36 3.84.254-1.292-1.509-5.888.96-7.2 7.011-.861 13.397-4.751 23.52-1.92 1.637.458 2.367 1.891 3.84 2.4 2.646.916 7.929 1.374 10.08.96 2.914-.561 4.564-3.736 6.72-4.32.611-.166 4.942-.608 6.24-.48 1.455.144 3.125 1.73 4.8 1.92 1.653.188 3.319-.721 4.32-.48 1.516.365 2.86 1.707 4.8 2.88 7.207 4.361 18.148 5.139 21.6 12.96 2.538-1.322 3.688-3.04 6.72-2.88 5.014.266 6.031 5.237 8.64 11.04.862 1.917 4.862 5.991 4.8 8.64-.075 3.203-5.544 7.62-5.28 12 1.417 3.068 2.08 8.098.48 11.52.959 3.698 4.341 3.299 4.8 6.72.516 3.843-4.642 8.687-4.8 13.44-.13 3.906 1.888 5.799 4.8 9.12h4.32c3.275 4.885 9.467 6.854 16.8 7.68 4.394-4.246 7.389-9.891 13.92-12 4.15-6.73 13.82-7.939 21.12-11.52-4.128-10.432-21.183-7.938-20.64-23.04-6.882-3.006-1.943-10.619-3.36-17.76-.898-2.573-4.113-2.812-4.8-5.76-1.095-4.697 2.061-8.236 4.8-10.56-.526-1.714-2.578-1.902-2.88-3.84.598-9.163 6.773-12.748 15.84-13.44 3.575-3.238 9.149-10.552 15.36-5.28 4.328-4.792 5.319-12.92 10.56-16.8-2.093-8.422.774-31.078 11.04-21.12 3.852-1.023 4.964-2.957 8.64-2.88 2.334.049 4.148 2.021 6.72 1.92 3.435-.134 5.611-5.255 9.6-5.76 4.451-.564 6.595 3.07 11.52 2.88 3.108-2.012 4.361-5.879 9.12-6.24-.482-6.562 5.076-7.084 6.72-11.52 6.644-1.105 14.589-10.032 19.68-1.44-1.171-2.137-1.226-5.035-2.88-7.68-2.123-3.396-3.348-2.726-4.8-8.16-.523-1.956-1.493-2.907-1.44-4.32.148-3.928 5.146-8.755 7.2-13.44.575-1.312.804-4.243 1.44-5.28 2.602-4.239 9.042-6.195 11.52-9.12 2.271.129 2.703 2.098 4.32 2.88 2.661-6.139 2.044-15.556 9.12-17.28-7.522-10.31.087-23.615 4.8-32.64-4.324-5.288.63-10.542 1.44-14.4.456-2.172-.24-4.597 0-6.72.666-5.877 3.647-11.155 5.28-15.36 5.598-.158 6.588 4.292 9.6 6.72 3.728 1.073 6.151 3.449 9.12 5.28 3.024-2.914 10.721-3.536 11.52 1.92 3.341-3.104 10.633-11.412 15.36-4.32 9.7-3.74 20.374-6.507 27.36-12.96 1.558-.278 2.233.327 3.36.48 3.107-3.453 6.704-6.416 11.52-8.16-.377-3.597 1.653-5.535 1.44-7.68-.752-7.583-11.319-9.773-10.56-15.84.575-4.59 6.979-4.587 8.16-9.6 1.613-.89 5.627-2.489 7.2-.48 2.097-2.703 4.121-5.479 7.201-7.2 2.005-.246 3.252.268 4.319.96.205-2.195.73-4.07.48-6.72.908-1.011 2.359-1.48 3.84-1.92-1.546-10.985 8.513-10.366 12.96-15.36 2.006-9.354 12.354-10.365 18.72-15.36 2.374-14.202-15.629-13.537-15.359-28.32-5.95-5.09-16.552-5.528-17.28-15.84-2.362-2.918-6.437-4.124-5.76-10.08 1.056-1.664 3.071-2.368 5.279-2.88.981-2.219 1.107-5.293 2.4-7.2 9.202-2.638 18.908-4.771 24.479-11.04 2.241-.959 6.504.104 8.641-.96-.013-2.936-2.163-2.197-2.88-4.8-1.759-6.385 4.775-14.397-1.44-16.8-15.193 8.56-14.606-19.688-7.2-25.92-1.808-2.654-1.086-5.956 0-9.12-2.813-2.835-2.32-5.99-2.88-11.04-.209-1.89-1.82-3.395-1.92-4.8-.315-4.478 2.377-8.728 4.32-12 .431-5.367-1.368-8.353-.48-12.96-2.604-.724-5.094 2.499-9.6 1.44-2.48 1.041-1.951 5.09-4.32 6.24-4.521-.625-7.667-.29-10.56-1.44-5.056-2.009-6.199-7.467-11.521-6.72-2.734.384-3.15 3.892-5.76 4.32-5.546.91-6.732-5.777-6.72-11.04.011-4.64-1.639-9.687-.48-12.48.769-1.853 5.263-3.935 4.8-6.72-.48-2.89-3.46-1.327-5.76-4.32-1.763-2.295-1.909-7.202-1.44-9.12 1.772-1.588 4.563-2.158 7.68-2.4 3.719-7.641 14.229-8.491 24.96-9.12 3.856 1.744 5.886 5.314 5.76 11.04.704 1.536 3.459 1.021 4.8 1.92 2.736-3.345 3.684-8.477 10.08-8.16 7.327-5.953 13.146-13.414 26.88-12.96 5.473-6.277-3.372-12.887-2.399-20.16.472-3.533 2.661-4.517 4.32-7.68-2.702-6.967 2.454-8.577 1.92-15.84 1.663-2.977 4.291-4.989 7.199-6.72 2.365-7.715 4.916-15.245 11.04-19.2 8.015-2.529 39.374-8.127 30.246 6.712z"/><path d="m276.96 497.28c3.066 8.934 6.166 17.834 12.96 23.04-.253 2.014.839 2.682.96 4.32 1.746 2.734 4.705 4.255 7.2 6.24 3.76-.4 6.224.496 8.16 1.92 1.318 3.672-.224 7.899-1.92 10.08 3.146 1.974.563 6.055 1.44 9.12 1.292 4.512 6.245 5.175 10.56 2.4 3.84.801 7.882 1.398 10.08 3.84 3.592-2.049 6.531-.269 10.08-.96 2.556-.498 4.021-2.899 6.24-3.36 5.298-1.099 10.39 2.286 17.28.96 3.213 4.627 7.863 7.817 10.08 13.44 10.431-2.575 14.664 4.729 18.72 10.08h3.36c5.117 8.133 15.404 10.843 12 24-1.269 4.903-4.098 12.724-7.2 13.92-1.593.614-2.847-.468-4.8 0-2.464.591-5.67 4.469-9.6 6.72-1.638.938-3.496 1.14-4.8 1.92-4.158 2.488-6 6.612-12.48 4.8-4.618 3.199-12.127 3.095-17.76 5.76-3.725 1.763-5.967 7.668-11.04 3.36-5.567 2.494-14.085 3.564-21.12 6.24-2.708 1.03-4.333 3.197-9.12 2.4-4.144-.69-7.776-5.423-12-7.2-2.078-.874-5.244-1.019-7.68-1.92-2.455-.908-4.417-2.421-6.24-2.88-3.569-.899-7.578-.426-11.04-1.44-1.857-.544-3.417-2.087-5.28-2.4-3.749-.63-9.085-.086-13.44.48-3.436.446-7.701 3.28-11.52 2.88-3.436-.36-8.021-4.917-9.12-9.12-1.126-4.308-.004-9.611-1.44-13.92-2.31-6.931-8.17-10.245-11.04-14.88-1.923-3.107-3.485-7.816-5.28-12.48-2.432-6.316-9.087-10.496-1.44-15.84-2.704-3.091-7.152-7.128-12.48-9.12-2.887-1.079-5.57-.376-7.68-2.4-1.604-1.539-1.794-4.668-2.88-7.2-.92-2.146-3.246-4.278-3.36-6.24-.251-4.323 3.341-5.542 5.28-8.64 6.521-1.082 8.942 1.938 12 4.32 6.28-3.747 15-2.086 20.16 1.44 3.212-.991 3.028-3.594 5.76-4.32 8.833-2.347 11.96 5.093 15.36 9.6 5.424-6.097 13.352-9.688 20.16-14.4.136-6.402-5.786-12.628-4.8-22.56.875-8.82 2.56-18.885 10.56-20.16 1.726-15.137 18.351 1.665 8.16 8.16z"/></g></svg>
