<svg clip-rule="evenodd" fill-rule="evenodd" stroke-linejoin="round" stroke-miterlimit="1.41421" viewBox="0 0 1124 2148" xmlns="http://www.w3.org/2000/svg"><g fill="#5fc1c8"><path d="m 743.54688,-0.51367188 c -7.70063,-0.13925 -17.54524,1.89174998 -21.55274,3.15624998 -6.124,3.955 -8.67406,11.4842189 -11.03906,19.1992189 -2.908,1.731 -5.53622,3.743703 -7.19922,6.720703 0.534,7.263 -4.62192,8.872844 -1.91992,15.839844 -1.659,3.163 -3.84832,4.146687 -4.32032,7.679687 -0.97299,7.273 7.87144,13.883156 2.39844,20.160157 -13.734,-0.454001 -19.5519,7.007937 -26.8789,12.960937 -6.396,-0.317 -7.34408,4.815156 -10.08008,8.160156 -1.341,-0.899 -4.09678,-0.383922 -4.80078,-1.919922 0.126,-5.726 -1.90377,-9.297015 -5.75977,-11.041015 -10.731,0.629 -21.23998,1.47814 -24.95898,9.11914 -3.117,0.242 -5.90769,0.812391 -7.67969,2.400391 -0.469,1.918 -0.32355,6.826095 1.43945,9.121095 2.3,2.993 5.27977,1.43031 5.75977,4.32031 0.463,2.785 -4.03178,4.86575 -4.80078,6.71875 -1.159,2.793 0.49147,7.84047 0.48047,12.48047 -0.012,5.263 1.1747,11.94906 6.7207,11.03906 2.61,-0.428 3.02576,-3.93436 5.75976,-4.31836 5.322,-0.747 6.46549,4.70975 11.52149,6.71875 2.893,1.15 6.03759,0.81641 10.55859,1.44141 2.369,-1.15 1.84031,-5.19924 4.32031,-6.24024 4.506,1.059 6.99561,-2.1654 9.59961,-1.4414 -0.888,4.607 0.91147,7.59394 0.48047,12.96094 -1.943,3.272 -4.63531,7.522 -4.32031,12 0.1,1.405 1.71092,2.90882 1.91992,4.79882 0.56,5.05 0.0679,8.20602 2.88086,11.04102 -1.086,3.164 -1.808,6.46514 0,9.11914 -7.406,6.232 -7.99378,34.47992 7.19922,25.91992 6.215,2.403 -0.31759,10.41578 1.44141,16.80078 0.717,2.603 2.8659,1.86478 2.8789,4.80078 -2.137,1.064 -6.39962,-1e-5 -8.64062,0.95899 -5.571,6.269 -15.27652,8.40301 -24.47852,11.04101 -1.293,1.907 -1.41939,4.98022 -2.40039,7.19922 -2.208,0.512 -4.22329,1.21686 -5.27929,2.88086 -0.67701,5.956 3.39776,7.16208 5.75976,10.08008 0.728,10.312 11.33125,10.74985 17.28125,15.83984 -0.27,14.78301 17.73142,14.11636 15.35742,28.31836 -6.366,4.995 -16.71275,6.00733 -18.71875,15.36133 -4.447,4.994 -14.50694,4.37438 -12.96094,15.35938 -1.48099,0.44 -2.93184,0.90892 -3.83984,1.91992 0.25,2.65 -0.27547,4.5257 -0.48047,6.7207 -1.067,-0.692 -2.31336,-1.20693 -4.31836,-0.96093 -3.08,1.72099 -5.10417,4.49817 -7.20117,7.20117 -1.573,-2.009 -5.58622,-0.41149 -7.19922,0.47851 -1.181,5.013 -7.58515,5.01157 -8.16015,9.60156 -0.759,6.067 9.80854,8.25685 10.56054,15.83985 0.213,2.145 -1.8184,4.08269 -1.4414,7.67969 -4.816,1.744 -8.41253,4.70715 -11.51953,8.16015 -1.127,-0.153 -1.80138,-0.75847 -3.35938,-0.48047 -6.986,6.453 -17.66133,9.22094 -27.36133,12.96094 -4.727,-7.092 -12.01837,1.21436 -15.35937,4.31836 -0.799,-5.456 -8.49553,-4.83392 -11.51953,-1.91992 -2.969,-1.831 -5.3931,-4.2063 -9.1211,-5.2793 -3.012,-2.428 -4.00161,-6.8787 -9.59961,-6.7207 -1.633,4.205 -4.61329,9.48433 -5.27929,15.36133 -0.24,2.123 0.456,4.54675 0,6.71875 -0.81,3.858 -5.76346,9.11239 -1.43946,14.40039 -4.713,9.025 -12.32278,22.33062 -4.80078,32.64062 -7.076,1.724 -6.46009,11.1403 -9.12109,17.2793 -1.617,-0.782 -2.04736,-2.74991 -4.31836,-2.87891 -2.478,2.925 -8.91949,4.88014 -11.52149,9.11914 -0.636,1.037 -0.86445,3.9673 -1.43945,5.2793 -2.054,4.685 -7.05122,9.51341 -7.19922,13.44141 -0.053,1.413 0.91646,2.36431 1.43946,4.32031 1.452,5.434 2.67778,4.7622 4.80078,8.1582 1.654,2.645 1.7079,5.54464 2.8789,7.68164 -5.091,-8.592 -13.03568,0.33446 -19.67968,1.43946 -1.644,4.436 -7.20271,4.95753 -6.72071,11.51953 -4.759,0.361 -6.01114,4.22823 -9.11914,6.24023 -4.925,0.19 -7.06853,-3.44486 -11.51953,-2.88086 -3.989,0.505 -6.16656,5.62772 -9.60156,5.76172 -2.572,0.101 -4.38475,-1.87092 -6.71875,-1.91992 -3.676,-0.077 -4.78863,1.85591 -8.64063,2.87891 -10.266,-9.958 -13.13206,12.69909 -11.03906,21.12109 -5.241,3.88 -6.23255,12.00683 -10.56055,16.79883 -6.211,-5.272 -11.78437,2.04129 -15.35937,5.27929 -9.067,0.692 -15.24184,4.27841 -15.83984,13.44141 0.302,1.938 2.3529,2.12584 2.8789,3.83984 -2.739,2.324 -5.89383,5.86355 -4.79883,10.56055 0.687,2.948 3.90083,3.18677 4.79883,5.75977 1.417,7.141 -3.52262,14.75376 3.35938,17.75976 -0.543,15.102 16.51262,12.60706 20.64062,23.03907 -7.3,3.581 -16.96914,4.79148 -21.11914,11.52148 -6.531,2.109 -9.52592,7.754 -13.91992,12 -7.333,-0.826 -13.52578,-2.79664 -16.80078,-7.68164 h -4.32032 c -2.912,-3.321 -4.92882,-5.21314 -4.79882,-9.11914 0.158,-4.753 5.31483,-9.59646 4.79882,-13.43946 -0.459,-3.421 -3.83982,-3.0227 -4.79882,-6.7207 1.6,-3.422 0.93653,-8.45153 -0.48047,-11.51953 -0.264,-4.38 5.2043,-8.797 5.27929,-12 0.062,-2.649 -3.93682,-6.72362 -4.79882,-8.64062 -2.609,-5.803 -3.62663,-10.77307 -8.64063,-11.03907 -3.032,-0.16 -4.1827,1.55691 -6.7207,2.87891 -3.452,-7.821 -14.39261,-8.59799 -21.59961,-12.95899 -1.94,-1.173 -3.28478,-2.51585 -4.80078,-2.88085 -1.001,-0.241 -2.66536,0.66846 -4.31836,0.48046 -1.675,-0.19 -3.34578,-1.77592 -4.80078,-1.91992 -1.298,-0.128 -5.62924,0.31447 -6.24024,0.48047 -2.156,0.584 -3.80475,3.75736 -6.71875,4.31836 -2.151,0.414 -7.43407,-0.043 -10.08007,-0.95898 -1.473,-0.509 -2.2048,-1.94239 -3.8418,-2.40039 -10.123,-2.831 -16.50853,1.05892 -23.51953,1.91992 -2.469,1.312 -0.70499,5.90917 -0.95899,7.20117 -3.773,-4.358 -9.36733,-3.3658 -15.36133,-3.8418 -2.361,1.158 -2.74284,4.29771 -3.83984,6.72071 -7.463,-10.99 -15.47392,-0.47969 -25.91992,4.32031 -7.639,3.511 -16.61016,5.07714 -20.16016,9.11914 -0.855,0.974 -0.51745,2.32384 -1.43945,3.83984 -1.801,2.96 -3.74084,3.30725 -3.83984,5.28125 -0.275,5.498 7.97314,12.03083 9.11914,16.79883 -1.284,9.897 2.85546,19.71684 0.48046,27.83984 -0.634,2.168 -2.7999,3.61072 -2.8789,5.76172 -0.08,2.168 1.87192,3.97228 1.91992,6.23828 0.104,4.897 -2.90525,7.31402 -5.28125,11.04102 0.013,7.373 0.61509,15.33322 -2.87891,19.19922 0.001,1.919 0.95799,2.88178 0.95899,4.80078 -7.333,12.187 -13.80852,25.23008 -24.47852,34.08008 -0.282,9.832 -12.94325,17.04092 -5.28125,25.91992 -0.701,10.141 1.07277,17.80755 5.75977,22.56055 -4.551,6.038 -6.79745,12.7049 -13.43945,14.8789 -1.828,0.599 -4.97771,0.32747 -6.72071,0.48047 -10.623,0.931 -13.87114,-0.65331 -21.11914,-4.32031 -3.622,-1.831 -7.42008,-2.61084 -10.080076,-3.83984 -1.724,-0.796 -2.188313,-2.2394 -4.320313,-2.40039 -5.961,-0.45 -8.072547,4.67017 -10.560547,7.20117 -5.603,2.83 -10.652437,6.40161 -14.398437,9.59961 -4.88,4.167 -9.524,10.17437 -12,15.35937 -2.876,6.022 -3.091234,13.39561 -6.240235,21.59961 -1.867,4.863 -5.416171,9.26639 -7.201171,14.40039 -1.941,5.58 -2.95575,11.25433 -6.71875,15.36133 -2.915,0.085 -4.169172,3.23384 -7.201172,3.83984 -1.912,0.382 -3.826766,-0.508 -5.759766,0 -4.528,1.191 -6.969687,5.43908 -7.679687,10.08008 -4.519,2.905 -12.6345472,4.55852 -10.5605472,12.47852 1.3979999,1.974 5.7826872,1.82892 7.6796872,1.91992 2.523,4.738 -1.370453,9.37492 -1.439453,13.91992 -0.026,1.684 1.288453,2.89631 1.439453,4.32031 0.105,0.995 -0.954984,2.34733 -0.958984,3.36133 -0.012,2.812 1.472922,4.59117 1.919922,7.20117 -2.752,-0.03 -3.420782,2.01938 -4.8007815,3.35938 1.2630005,9.39 2.3219375,13.60148 0.9609375,23.52148 -3.311,1.01 -5.5600938,3.07985 -9.1210938,3.83985 -0.41299995,1.82 -1.29898433,3.17976 -0.95898433,5.75976 0.74300001,1.66 2.63231253,2.16891 4.32031253,2.87891 0.159,1.92 -0.8554688,2.66078 -0.4804688,4.80078 2.886,2.47 5.4692969,4.10059 5.2792969,8.64059 1.9129995,1.28 6.0786405,0.32 7.6816405,1.92 -4.506,9.35 4.639672,14.5686 8.638672,8.6386 0.829,4.45 1.23325,9.3306 5.28125,10.5606 -1.365,1.39 -0.03048,4.1593 0.478516,5.2793 3.752,3.46 7.349078,-0.2299 10.080078,-1.9199 -3.407,2.4499 -6.318313,7.6299 -4.320313,13.9199 2.627,1.71 6.439641,-0.9185 7.681641,-0.4785 0.721,4.26 -4.063859,6.0196 -2.880859,9.5996 1.125999,3.41 7.015531,2.5699 11.519531,1.9199 2.597,-1.08 0.431328,-6.9297 3.361328,-7.6797 -0.135,1.62 -0.763469,2.7488 -0.480469,4.7988 6.427,6.09 14.183,-0.8186 12,-10.5586 2.221,1.49 4.336219,3.3089 7.199219,2.8789 -0.808,1.53 -0.869531,5.8107 0.480469,6.7207 2.988,1.7 5.207625,-1.0704 8.640625,-0.4804 -1.897,1.17 -2.760938,5.6197 -0.960938,7.6797 6.871,0.97 14.528375,1.1501 15.359375,8.1601 2.904002,0.77 4.922152,2.4409 8.160152,2.8809 0.61,10.03 13.24894,3.4391 12.96094,-2.8809 6.881,-0.32 10.81445,2.3003 13.43945,6.2403 1.754,0.32 3.48977,0.6704 5.75977,0.4804 0.598,1.64 0.81039,3.6703 2.40039,4.3203 4.949,0.63 5.49416,-3.1507 8.16016,-4.8007 0.678,2.04 1.72037,3.7207 3.35937,4.8007 2.983,0.58 3.71224,-1.0909 6.24024,-0.9609 1.344,0.73 0.60986,3.5494 2.88086,3.3594 1.936,2.29 6.15561,0.4214 9.59961,1.4414 1.658,0.49 2.16084,2.1884 3.83984,2.3984 6.601,0.82 6.85108,-4.3293 10.08008,-5.2793 -0.186,2.9 0.0329,5.3992 0.96094,7.1992 3.613,2.07 9.89698,0.5011 12.95898,-0.9589 3.276,1.43 9.07861,1.4002 9.59961,6.2402 0.524,4.86 -5.50524,11.1695 -6.24024,17.2695 -0.413,3.43 1.14541,6.6303 1.44141,10.5703 0.742,9.84 -1.54647,19.1393 -0.48047,29.2793 -1.681,9.44 -8.47915,15.4997 -8.16015,25.4297 -5.366,4.99 -4.84116,12.1713 -8.16016,17.2813 -3.046,4.7 -8.43053,4.2599 -11.51953,8.1699 -3.026,3.82 -1.61986,9.6501 -2.88086,15.8301 -0.91,4.47 -4.35631,9.0093 -4.32031,15.3593 -4.021,1.26 -7.88008,2.6896 -10.08008,5.7696 -0.715,6.63 2.80339,9.0315 2.40039,15.3515 -7.551,3.83 -7.40924,17.8589 -6.24024,28.7989 8.844,3 12.66808,11.0194 22.08008,13.4394 3.25,4.87 6.5721,7.981 9.1211,12.961 3.462,6.77 3.46606,12.8199 11.03906,13.9199 -0.002,5.77 4.38817,7.1401 7.20117,10.0801 1.876,5.65 6.29808,8.7404 10.08008,12.4804 2.158,5.69 5.15367,10.5289 8.63867,14.8789 -0.33,1.93 0.46047,2.7403 0.48047,4.3203 3.243,5.83 10.16986,1.8695 14.88086,1.4395 6.367,-0.58 14.0253,2.1005 17.2793,-1.4395 3.958,-0.51 7.28806,0.7 11.03906,0 2.074,-0.38 3.82972,-2.1603 5.76172,-2.4003 5.625,-0.6801 9.86651,1.251 12.47851,-2.879 3.189,5.09 9.92494,1.08 12.96094,0 2.195,-0.78 3.56131,-0.3909 4.32031,-0.9609 2.453,-1.82 2.4713,-7.4101 5.2793,-8.1601 4.517,-1.2001 9.73792,4.4007 13.91992,4.8007 2.859,0.28 3.62117,-1.2099 7.20117,-1.9199 4.85,11.59 4.69144,25.8206 14.39844,32.6406 2.324,1.64 5.16269,1.4599 7.67969,3.8399 -3.62,3.47 -4.67038,10.2493 -3.35938,17.2793 -3.591,2.97 -2.9229,10.2008 -2.8789,16.8008 3.73,4.11 1.42475,14.2588 6.71875,16.7988 -6.35,3.17 -5.66038,18.0294 -3.35938,25.4394 -5.10721,2.9474 -12.63415,3.4714 -16.26562,7.8848 2.50327,7.1697 5.24804,17.8438 5.24804,17.8438 0,0 13.81641,27.1106 13.81641,32.3242 0,5.2136 4.17121,3.6488 5.47461,5.2129 1.3034,1.5641 -19.5514,25.2857 -22.1582,27.8925 -2.60679,2.6068 -12.25142,2.3477 -14.07618,2.3477 -1.82475,0 -9.90662,-2.087 -11.4707,-2.3477 -10.84127,1.2229 -11.69879,15.0826 -6.16797,21.1622 3.81,13.1499 4.82414,29.0997 9.11914,41.7597 -6.415,12.41 -12.54706,29.3406 -11.03906,46.5606 1.927,2.14 4.23631,3.7407 4.32031,6.7207 0.214,7.57 -10.79654,10.1887 -10.56054,18.7187 -3.463,1.5 -5.10769,4.8212 -7.67969,7.2012 -8.462,0.44 -9.49625,11.7706 -17.28125,14.8906 -1.975,0.79 -4.41524,-0.3518 -6.24024,1.9082 -1.942,4.59 1.21779,7.5699 4.80079,8.1699 -2.091,1.62 -2.26646,5.3807 -1.43946,8.6407 -0.197,2.04 -2.44639,2.0303 -2.40039,4.3203 0.208,6.21 -0.279,12.2502 0,18.2402 0.291,6.26 -1.31347,12.4195 -0.48047,17.2695 0.577,3.36 4.67839,6.1806 2.40039,10.5606 3.079,7.34 11.98316,3.4288 20.16016,4.7988 2.335,0.4 4.27223,2.2806 6.24023,2.8906 1.203,0.36 2.47285,-0.36 3.83985,0 3.079,0.8 5.34769,2.3896 7.67969,3.3497 2.262,0.9399 4.4447,1.2014 6.7207,1.4414 4.299,3.39 8.15645,7.2096 13.43945,9.5996 -1.12,10.41 7.97355,16.0604 10.56055,24.4804 0.343,1.12 -0.28,2.5399 0,3.8399 0.368,1.72 2.08044,3.0986 2.39844,4.8086 1.866,9.98 -1.73475,16.601 -6.71875,23.041 -0.995,8.15 -1.40186,15.1794 -2.88086,21.1094 -1.988,7.98 -10.05567,12.3312 -8.63867,23.5312 -3.194,3.36 -4.94571,8.169 -6.72071,12.959 -2.675,2.12 -4.71976,4.8806 -5.75976,8.6406 -1.196,1.2 -3.60579,1.1904 -4.80079,2.4004 0.767,3.36 -3.18237,5.4694 -3.35937,9.1094 -0.035,0.73 1.15945,2.4403 1.43945,4.3203 0.842,5.68 -0.0726,7.6491 3.35938,9.1191 1.144,5.36 0.41648,12.8596 -0.47852,17.7696 0.057,1.86 2.35539,1.4815 2.40039,3.3515 -0.881,7.13 4.22283,8.26 4.79883,13.92 12.027,6.06 15.08447,21.0795 24.48047,29.7695 -0.33,1.92 0.46047,2.7305 0.48047,4.3105 5.888,4.2 9.26853,10.8986 11.51953,18.7286 5.946,2.5299 5.67853,11.2801 11.51953,13.9101 0.904,6.78 5.6247,9.7403 6.7207,16.3203 3.099,3.31 5.10068,7.7006 8.63868,10.5606 1.912,11.21 14.20664,12.0394 19.68164,19.6894 0.477,5.42 3.56275,7.0006 6.71875,10.5606 3.861,4.35 4.62808,7.4501 10.08007,8.1601 0.54001,8.26 8.73947,8.8599 12.48047,13.9199 6.79,-1.62 8.48086,2.8989 14.88086,2.879 4.427,3.4099 6.74944,8.931 14.39844,9.121 2.834,7.43 9.78841,1.9986 13.44141,-1.4414 -0.059,-3.95 -0.79247,-7.2095 -0.48047,-11.5195 5.39,-3.25 4.05683,-13.2291 4.79883,-21.1191 2.265,-3.18 5.43923,-5.4401 6.24023,-10.0801 4.366,-0.68 4.87163,-1.7995 8.64063,-1.4395 3.42,-5.38 2.69478,-14.9115 4.80078,-21.6015 1.693,-0.71 3.88229,-0.9199 5.27929,-1.9199 0.508,-6.9801 5.98085,-11.1393 3.83985,-19.1993 2.307,-2.66 4.81262,-5.1102 8.64062,-6.2402 9.252,1.81 16.09875,-6.0199 18.71875,-13.9199 0.405,-2.01 -0.93198,-2.2699 -0.95898,-3.8399 6.465,-3.53 1.01447,-9.1608 0.48047,-14.8808 -1.823,-19.58 2.19245,-38.1102 1.43945,-56.1602 2.452,-2.67 2.25639,-7.989 2.40039,-12.959 3.415,-1.78 4.50092,-8.31 1.91992,-12 3.465,-9.24 5.11861,-15.5293 9.59961,-23.5293 5.88,-10.48 11.99891,-20.1504 26.87891,-20.1504 5.344,-0.01 12.32925,3.2289 17.28125,2.879 2.476,-0.1801 6.13908,-3.29 10.08008,-1.92 12.096,-9.9 4.6399,-27.9886 2.8789,-44.6386 -1.672,-15.83 -3.66651,-31.2116 -0.47851,-45.6016 3.454,-4.39 2.07175,-13.6086 6.71875,-16.8086 2.82,0.73 7.39561,0.8193 9.59961,-0.4707 1.513,-1.69 0.8584,-3.3991 1.4414,-5.2891 4.201,-3.65 10.19439,-5.1608 14.40039,-8.6308 1.975,-1.64 2.30777,-5.5593 5.75977,-5.2793 2.158,1.04 1.90242,4.4902 3.35742,6.2402 5.755,2.16 15.8255,4.3187 22.5625,2.3887 2.01,-4.02 -2.34833,-6.8106 -3.36133,-10.5606 -1.409,-5.21 0.0525,-10.7997 -0.47851,-17.7597 2.399,-2.76 2.25445,-9.38 1.43945,-13.9199 2.409,-4.4701 7.04414,-8.28 9.11914,-13.92 0.66,-1.79 0.0879,-4.4602 0.96094,-6.2402 2.014,-4.09 7.57048,-5.2592 11.52148,-7.1992 6.483,-9.35 20.8935,-10.7801 25.4375,-22.0801 4.672,-1.72 8.299,-4.4992 12,-7.1992 12.003,-1.91 16.23571,-11.601 30.72071,-11.041 3.894,-2.34 7.27406,-5.1997 11.03906,-7.6797 1.068,0.7 2.31531,1.2109 4.32031,0.9609 3.223,-1.69 4.49863,-4.4117 8.64063,-5.7617 8.811,-2.86 21.31014,-0.5886 21.11914,-10.5586 3.308,-1.49 6.22609,-3.3712 9.12109,-5.2812 3.38,3.0399 9.05747,2.69 12.48047,0 6.697,1.31 6.67884,9.3301 15.83984,8.1601 2.679,-7.88 12.36485,-8.7498 15.83985,-15.8398 0.148,-1.9 -1.10894,-2.4103 -0.96094,-4.3203 1.256,-5.05 10.57539,-6.2091 11.52539,-11.0391 1.34,-6.85 -7.23016,-5.3596 -8.16016,-9.5996 -0.459,-2.06 3.29985,-8.7416 3.83985,-9.6016 2.24,-3.62 6.43062,-5.7196 8.64062,-9.5996 2.66,-4.68 4.72063,-12.7503 8.64063,-16.3203 3.23,-2.94 12.37976,-4.2199 17.75976,-3.8398 3.55,0.25 8.64,4.3813 12,3.3613 4.03,-1.22 3.14875,-9.401 6.71875,-11.041 11.73,-3.74 13.80047,9.4012 24.48047,5.2812 -1.32,-3.8 -3.32031,-6.921 -4.32031,-11.041 5.55,-8.12 7.17078,-18.6696 16.80078,-21.5996 1.46,-0.44 2.98031,0.1395 4.32031,-0.4805 4.07,-1.89 7.41852,-8.5591 12.47852,-9.1191 7.07,13.44 14.20133,-4.9814 15.36133,-13.4414 9.4,-7.37 12.81968,-22.2788 31.67969,-18.7188 8.47,-2.59 6.7205,-13.0008 0.4805,-16.8008 0.11,-2.61 1.5089,-3.9292 0.9589,-7.1992 -6.69,0.63 -10.67034,-4.0007 -14.40034,-6.7207 -2.38,-1.73 -4.2493,-1.6894 -5.2793,-3.3594 -0.87,-1.4 -0.51945,-4.5107 -1.43945,-6.7207 -1.17,-2.77 -3.81985,-4.0702 -3.83985,-6.2402 -0.06,-4.5 5.33922,-4.9387 7.19922,-8.6387 -3.61,-6.57 -13.05922,-7.6815 -19.19922,-11.5214 -5.23,-3.26 -9.25047,-9.4801 -12.48047,-10.0801 -3.22,-0.59 -6.11914,1.5409 -9.11914,0.9609 -4.33,-0.84 -8.22164,-6.7105 -7.68164,-10.5605 -8.36,0.1 -12.80875,-4.7988 -18.71875,-6.7188 -7.08,-2.3 -17.61101,-2.3809 -23.04101,-0.9609 -5.53,-6.33 -11.69961,-2.2804 -21.59961,-2.4004 -6.2,-2.7 -10.65086,-7.0791 -14.88086,-11.0391 -4.55,-4.25 -10.61938,-7.1415 -15.35938,-11.5215 -10.93,-10.08 -20.29018,-19.7482 -30.24218,-30.2382 -2.733,-2.88 -5.65716,-5.6807 -8.16016,-8.6407 -2.738,-3.23 -5.83063,-5.2401 -8.64063,-8.1601 -3.787,-3.93 -5.89614,-9.4804 -9.11914,-14.4004 -3.025,-4.62 -6.33009,-8.8099 -9.12109,-13.9199 -2.668,-4.87 -5.71614,-9.8104 -9.11914,-14.4004 -6.94,-9.36 -10.85631,-20.3688 -16.32031,-30.7188 -3.306,-6.26 -5.84514,-14.2701 -9.11914,-22.0801 -3.307,-7.88 -8.56408,-14.6496 -10.08008,-21.5996 -2.22,-10.17 -1.2698,-17.0714 -3.8418,-25.4414 1.148,-2.05 1.29488,-5.1097 1.92188,-7.6797 5.078,1.15 13.737,-2.7606 12,-8.6406 -0.724,-2.45 -6.38264,-4.0197 -7.68164,-5.7597 -3.85,-5.17 -4.45816,-13.3092 -8.16016,-21.1192 -1.293,-2.73 -3.85877,-5.5206 -5.75977,-8.6406 -5.817,-9.56 -10.1409,-19.1693 -14.8789,-29.2793 -4.097,-8.74 -8.67408,-15.1695 -10.08008,-23.5195 -7.433,-11 -11.44584,-27.6418 -15.83984,-41.7618 -1.322,-4.25 -3.57832,-8.3 -4.32032,-12 -1.28,-6.38 -0.28686,-13.7397 -2.88086,-19.67965 -0.845,-1.94 -2.5409,-2.84883 -2.8789,-4.79883 -0.376,-2.17 0.12347,-6.61008 0.48047,-10.08008 0.828,-8.06 4.35734,-11.23125 5.27734,-17.28125 0.763,-5.02 -1.79844,-9.06992 -2.39844,-13.91992 -1.091,-8.824 0.23638,-14.73975 3.35938,-18.71875 -1.057,-10.788 1.99023,-14.43461 6.24023,-21.59961 2.297,-3.872 3.64877,-8.74147 5.75977,-12.48047 4.405,-7.798 10.91847,-13.856 12.48047,-24 1.251,-8.128 2.87576,-16.20507 5.75976,-22.08007 1.056,-2.151 3.13585,-3.40525 3.83985,-5.28125 0.671,-1.787 0.31398,-4.1433 0.95898,-5.2793 2.383,-4.2 11.78686,-8.53953 14.88086,-11.51953 1.891,-1.822 2.94631,-4.81517 4.32031,-7.20117 1.685,-2.927 6.44622,-7.5576 7.19922,-10.5586 1.391,-5.549 -0.16248,-11.76331 0.47852,-16.32031 0.789,-5.606 3.65673,-10.23538 4.80273,-15.35938 1.079,-4.826 1.20891,-9.98439 2.87891,-14.40039 2.854,-7.547 8.84393,-13.18668 12.96093,-19.67968 1.959,-3.091 3.49877,-7.13755 5.75977,-10.56055 2.245,-3.4 5.45975,-6.67308 6.71875,-10.08008 0.606,-1.639 0.30794,-3.6013 0.96094,-5.2793 5.415,-13.895 17.42864,-23.66932 19.68164,-39.36132 3.265,-3.572 5.47261,-8.37707 9.59961,-11.03907 1.456,-0.939 3.34783,-0.94492 4.79883,-1.91992 4.763,-3.199 7.24193,-9.39953 12.96093,-11.51953 0.665,-9.846 10.36838,-11.76278 15.35938,-16.80078 8.153,-8.231 8.26297,-21.47155 11.04297,-34.56055 3.69,-4.063 3.24976,-10.1959 5.75976,-14.8789 1,-1.867 3.70078,-2.89479 4.80078,-4.80078 3.22,-5.62101 4.41024,-16.95154 6.24024,-23.51954 1.63,-5.872 6.9793,-11.74215 5.27929,-20.16015 3,-3.242 6.48102,-5.21716 11.04102,-8.16016 3.16,-2.041 6.96859,-7.92962 10.55859,-8.64062 3.03,-0.601 5.59063,1.57093 8.64063,0.96093 3.45,-0.691 5.20961,-5.40132 9.59961,-3.36132 5.04,-3.442 7.36008,-9.59538 10.08008,-15.35938 2.08,-0.474 4.24125,-0.87739 5.28125,-2.40039 0.79,-8.066 -0.13071,-18.03959 5.27929,-22.55859 -0.5,-9.521 6.69961,-15.1381 9.59961,-21.1211 2.23,-4.596 2.72078,-9.89039 4.80078,-14.40039 1.84,-3.996 5.09969,-8.765 7.67969,-12 4.82,-6.044 17.81,-16.26475 24,-18.71875 2.96,-1.173 5.79016,-0.83039 8.16016,-2.40039 9.27,-6.157 3.9389,-28.31415 14.87887,-32.16015 0.91,-1.32501 0.46,-4.01779 1.92,-4.80079 2.16,-0.559 3.7907,-1.64745 6.7207,-1.43945 2.26,-1.737 2.5898,-5.40616 3.8398,-8.16016 3.48,-2.633 9.281,-5.42707 11.041,-10.08007 0.87,-2.31 -1.0301,-5.52722 1.9199,-7.19922 1.78,-1.102 5.9693,0.21354 7.1993,-1.43946 1.72,-3.234 0.5494,-9.36745 1.4394,-13.43945 8.78,-3.854 7.7707,-17.50717 18.7207,-19.20117 0.81,-7.187 2.5492,-13.45183 7.1992,-16.79883 -0.62,-3.24 2.5414,-5.30569 3.3614,-7.67969 1.28,-3.748 0.8504,-7.90748 2.4004,-11.52148 2.8,-6.548 7.5382,-11.69569 8.1582,-19.67969 6.15,-1.08 4.6107,-8.56445 6.7207,-13.43945 1.51,-3.5 5.6696,-5.01816 7.6796,-8.16016 1.65,-2.59 1.0414,-5.38922 3.3614,-7.19922 -0.58,-3.775 0.849,-5.54862 0.959,-8.64062 12.04,-3.796 10.2696,-21.40792 21.5996,-25.91992 -0.81,-4.984 5.7308,-14.04024 4.8007,-18.24024 -0.75,-3.374 -5.281,-4.53631 -11.041,-4.32031 -11.24,-3.479 -21.3701,-8.075 -32.1601,-12 -0.9,-4.86 -2.8989,-8.62039 -2.8789,-14.40039 2.38,-2.892 5.3202,-5.23761 6.2402,-9.59961 -4.94,-4.336 -14.4702,-4.08961 -18.2402,-9.59961 -2.16,0.077 -3.7708,-0.38845 -4.8008,-1.43945 0.15,-3.51 -0.3389,-6.38517 -2.8789,-7.20117 -4.76,0.833 -9.3909,-2.91393 -14.8809,-1.91993 -1.86,0.335 -3.3593,2.26439 -5.2793,2.40039 -4.65,0.329 -10.4708,-3.39131 -14.8808,-4.32031 -1.4,-0.293 -2.9303,0.203 -4.3203,0 -8.79,-1.285 -13.9193,-5.74508 -19.19926,-10.08008 -2.22,0.025 -4.69024,-0.21153 -6.24024,0.48047 -1.93,-5.431 -8.15906,-6.56401 -11.03906,-11.041013 1.32,-2.523 0.55,-4.751688 0,-7.679688 1.43,-3.053 3.40984,-5.550609 3.83984,-9.599609 0.65,-1.222 2.81032,-2.029313 4.32032,-4.320312 1.87,-2.852001 6.10976,-10.966938 5.75976,-12.960938 -0.44,-2.483 -3.28117,-4.140359 -7.20117,-4.318359 -3.77,-3.914 -8.79945,-6.565563 -13.43945,-9.601563 -4.54,1.22 -5.39953,6.123766 -11.51953,5.759766 -0.94,-1.295 -0.29047,-4.192282 -0.48047,-6.238282 -3.93,-4.391999 -5.54063,-11.100312 -8.64063,-16.320312 -5.73,-0.451 -8.19906,2.355828 -11.03906,4.798828 -1.77,-2.897 -6.56109,-3.810984 -9.12109,-0.958984 -2.86,-2.217 -4.96914,-5.672313 -9.11914,-4.320313 -3.52,1.149 -1.93079,5.970157 -4.80079,8.160157 -6.27,-0.033 -7.30953,3.120375 -11.51953,3.359374 -6.78,0.384001 -10.84922,-6.454828 -19.19922,-4.798828 -4.08,0.809 -10.63984,6.238141 -15.83984,9.119141 -1.91,1.056 -4.90023,1.494391 -6.24023,2.400391 -4.37,2.961 -6.89953,14.149906 -11.51953,14.878906 -4.35001,0.686 -7.9361,-3.984219 -9.1211,-7.199219 4.301,-6.926 -1.06786,-9.368922 -2.88086,-13.919922 -0.962,-2.42 0.37155,-4.323234 -1.43945,-6.240234 -6.957,-0.947 -18.55147,-2.447063 -24.48047,0.960937 -2.483,1.427 -2.25778,3.992829 -4.80078,4.798828 -3.89,-1.108 -5.37714,-3.340375 -9.11914,-3.359374 -2.576,-0.013 -4.47022,1.796453 -7.19922,1.439453 -4.463,-0.584 -7.78747,-6.084625 -12.48047,-8.640625 -3.389,-1.846 -6.93206,-2.142907 -11.03906,-2.878907 -0.238,-1.842 -1.41939,-2.740843 -2.40039,-3.839843 -2.459,-0.9 -5.89321,-0.824922 -8.15821,-1.919922 -1.113,-3.847 -3.62865,-6.294157 -6.72265,-8.160156 0.193,-3.873001 -2.47385,-4.888172 -3.83985,-7.2011724 4.564,-7.4195 -0.99273,-9.72793747 -8.69335,-9.86718748 z" /><path d="m 125.361,445.2358 c 3.066,8.934 6.166,17.834 12.96,23.04 -0.253,2.014 0.839,2.682 0.96,4.32 1.746,2.734 4.705,4.255 7.2,6.24 3.76,-0.4 6.224,0.496 8.16,1.92 1.318,3.672 -0.224,7.899 -1.92,10.08 3.146,1.974 0.563,6.055 1.44,9.12 1.292,4.512 6.245,5.175 10.56,2.4 3.84,0.801 7.882,1.398 10.08,3.84 3.592,-2.049 6.531,-0.269 10.08,-0.96 2.556,-0.498 4.021,-2.899 6.24,-3.36 5.298,-1.099 10.39,2.286 17.28,0.96 3.213,4.627 7.863,7.817 10.08,13.44 10.431,-2.575 14.664,4.729 18.72,10.08 h 3.36 c 5.117,8.133 15.404,10.843 12,24 -1.269,4.903 -4.098,12.724 -7.2,13.92 -1.593,0.614 -2.847,-0.468 -4.8,0 -2.464,0.591 -5.67,4.469 -9.6,6.72 -1.638,0.938 -3.496,1.14 -4.8,1.92 -4.158,2.488 -6,6.612 -12.48,4.8 -4.618,3.199 -12.127,3.095 -17.76,5.76 -3.725,1.763 -5.967,7.668 -11.04,3.36 -5.567,2.494 -14.085,3.564 -21.12,6.24 -2.708,1.03 -4.333,3.197 -9.12,2.4 -4.144,-0.69 -7.776,-5.423 -12,-7.2 -2.078,-0.874 -5.244,-1.019 -7.68,-1.92 -2.455,-0.908 -4.417,-2.421 -6.24,-2.88 -3.569,-0.899 -7.578,-0.426 -11.04,-1.44 -1.857,-0.544 -3.417,-2.087 -5.28,-2.4 -3.749,-0.63 -9.085,-0.086 -13.44,0.48 -3.436,0.446 -7.701,3.28 -11.52,2.88 -3.436,-0.36 -8.021,-4.917 -9.12,-9.12 -1.126,-4.308 -0.004,-9.611 -1.44,-13.92 -2.31,-6.931 -8.17,-10.245 -11.04,-14.88 -1.923,-3.107 -3.485,-7.816 -5.28,-12.48 -2.432,-6.316 -9.087,-10.496 -1.44,-15.84 -2.704,-3.091 -7.152,-7.128 -12.48,-9.12 -2.887,-1.079 -5.57,-0.376 -7.68,-2.4 -1.604,-1.539 -1.794,-4.668 -2.88,-7.2 -0.92,-2.146 -3.246,-4.278 -3.36,-6.24 -0.251,-4.323 3.341,-5.542 5.28,-8.64 6.521,-1.082 8.942,1.938 12,4.32 6.28,-3.747 15,-2.086 20.16,1.44 3.212,-0.991 3.028,-3.594 5.76,-4.32 8.833,-2.347 11.96,5.093 15.36,9.6 5.424,-6.097 13.352,-9.688 20.16,-14.4 0.136,-6.402 -5.786,-12.628 -4.8,-22.56 0.875,-8.82 2.56,-18.885 10.56,-20.16 1.726,-15.137 18.351,1.665 8.16,8.16 z" /></g></svg>
