<svg clip-rule="evenodd" fill-rule="evenodd" stroke-linejoin="round" stroke-miterlimit="1.41421" viewBox="0 0 24 18" xmlns="http://www.w3.org/2000/svg"><path d="m28 15v2c0 .549-.451 1-1 1h-15.171l3.646 3.646c.094.094.146.221.146.354s-.052.26-.146.353l-2.121 2.122c-.094.094-.221.147-.354.147s-.26-.053-.354-.147l-7.768-7.768c-.187-.187-.292-.442-.292-.707s.105-.52.292-.707l7.768-7.768c.094-.094.221-.147.354-.147s.26.053.354.147l2.121 2.121c.094.094.146.221.146.354s-.052.26-.146.353l-3.646 3.647h15.171c.549 0 1 .451 1 1z" fill="#fff" fill-rule="nonzero" transform="translate(-4.58561 -7.37843)"/></svg>