<svg clip-rule="evenodd" fill-rule="evenodd" stroke-linejoin="round" stroke-miterlimit="1.41421" viewBox="0 0 28 28" xmlns="http://www.w3.org/2000/svg"><path d="m15 5c0-.002 0-.004 0-.006 0-1.643 1.351-2.994 2.994-2.994 1.359 0 2.556.926 2.897 2.241-1.743.538-3.112 1.907-3.65 3.65-1.313-.34-2.238-1.534-2.241-2.891zm4 4.5c0 1.92 1.58 3.5 3.5 3.5s3.5-1.58 3.5-3.5-1.58-3.5-3.5-3.5-3.5 1.58-3.5 3.5zm10.893 8.443c-.227-.568-.78-.943-1.392-.943-.191 0-.38.036-.558.107l-3.1 1.241-3.865 1.578c-.12.049-.249.074-.378.074h-4.6c-.549 0-1-.451-1-1s.451-1 1-1h4.403l1.199-.489c.256-.277.398-.64.398-1.016 0-.82-.675-1.495-1.495-1.495-.002 0-.003 0-.005 0h-3.5l-3.327-.865c-.436-.088-.889-.027-1.287.172l-3.096 1.548c-.192.096-.368.223-.519.374l-1.771 1.771 6 6h5.5c.191 0 .38-.036.557-.107l10-4c.568-.228.943-.781.943-1.393 0-.191-.037-.38-.107-.557zm-24.186 1.764c-.388-.388-1.026-.388-1.414 0l-2.293 2.293 7 7 2.293-2.293c.388-.388.388-1.026 0-1.414z" fill="#fff" fill-rule="nonzero" transform="translate(-2 -1.99999)"/></svg>