<svg viewBox="0 0 32 32" xmlns="http://www.w3.org/2000/svg"><path d="m10.13037 20.13281 2.953.90869-.93408 5.13721a1.00006 1.00006 0 0 1 -.98388.82129h-2.16541a1 1 0 0 1 -1-1v-6h1.248a3.00268 3.00268 0 0 1 .88237.13281zm-.8822-9.13281h-3.24817a2.00006 2.00006 0 0 0 -2 2v3a2.00006 2.00006 0 0 0 2 2h3.24817a5.00323 5.00323 0 0 1 1.4704.22119l12.28143 3.77881v-15l-12.28143 3.77881a5.00323 5.00323 0 0 1 -1.4704.22119zm17.75183-6h-1a1 1 0 0 0 -1 1v17a1 1 0 0 0 1 1h1a1 1 0 0 0 1-1v-17a1 1 0 0 0 -1-1z" fill="#fff"/></svg>