<svg viewBox="0 0 32 32" xmlns="http://www.w3.org/2000/svg"><path d="m16 3.5c-5.70117 0-10 4.084-10 9.5a9.91528 9.91528 0 0 0 2.57812 6.5752c.90821 1.17626 1.42188 1.89209 1.42188 2.9248v2a2.49679 2.49679 0 0 0 1.63458 2.33643l.614 1.53491a1.00009 1.00009 0 0 0 .92848.62866h5.64588a1.00009 1.00009 0 0 0 .92852-.62866l.614-1.53491a2.49679 2.49679 0 0 0 1.63454-2.33643v-2c0-1.03271.51367-1.74854 1.42188-2.9248a9.91528 9.91528 0 0 0 2.57812-6.5752c0-5.416-4.29883-9.5-10-9.5zm5.04688 14.24219a7.9508 7.9508 0 0 0 -2.01488 4.25781h-6.064a7.9508 7.9508 0 0 0 -2.01484-4.25781 7.0895 7.0895 0 0 1 -1.95316-4.74219c0-3.70557 3.00977-6.5 7-6.5s7 2.79443 7 6.5a7.0895 7.0895 0 0 1 -1.95312 4.74219z" fill="#fff"/></svg>