<svg clip-rule="evenodd" fill-rule="evenodd" stroke-linejoin="round" stroke-miterlimit="1.41421" viewBox="0 0 28 25" xmlns="http://www.w3.org/2000/svg"><path d="m15.128 6.836c0-2.286 3.117-3.923 4.787-1.582.02.029.053.046.087.046s.066-.016.087-.043c.494-.695 1.295-1.108 2.147-1.108 1.446 0 2.636 1.19 2.636 2.636v.051c0 1.996-2.537 3.59-4.564 5.818-.079.087-.191.137-.308.137s-.229-.05-.308-.137c-2.027-2.228-4.564-3.822-4.564-5.818zm-9.421 12.871c-.388-.388-1.026-.388-1.414 0l-2.293 2.293 7 7 2.293-2.293c.388-.388.388-1.026 0-1.414zm24.186-1.764c-.227-.568-.78-.943-1.392-.943-.191 0-.38.036-.558.107l-3.1 1.241-3.865 1.578c-.12.049-.249.074-.378.074h-4.6c-.549 0-1-.451-1-1s.451-1 1-1h4.403l1.199-.489c.256-.277.398-.64.398-1.016 0-.82-.675-1.495-1.495-1.495-.002 0-.003 0-.005 0h-3.5l-3.327-.865c-.436-.088-.889-.027-1.287.172l-3.096 1.548c-.192.096-.368.223-.519.374l-1.771 1.771 6 6h5.5c.191 0 .38-.036.557-.107l10-4c.568-.228.943-.781.943-1.393 0-.191-.037-.38-.107-.557z" fill="#fff" fill-rule="nonzero" transform="translate(-2 -4.11499)"/></svg>