<svg viewBox="0 0 32 32" xmlns="http://www.w3.org/2000/svg"><path d="m12 24v2a1 1 0 0 1 -1 1h-4.577a1.99964 1.99964 0 0 1 -1.732-1l-1.21151-2.09814a2.00012 2.00012 0 0 1 0-2l2.24372-3.88624-1.97687-1.14135a.5.5 0 0 1 .03625-.885l6.4256-3.03809a.5.5 0 0 1 .712.41113l.58181 7.08369a.5.5 0 0 1 -.74829.47388l-1.56671-.90438-1.72313 2.9845h3.53613a1 1 0 0 1 1 1zm4-15.78467 1.62988 2.823-1.88354 1.0874a.5.5 0 0 0 .03625.885l6.42554 3.03809a.50006.50006 0 0 0 .7121-.41113l.58177-7.08369a.5.5 0 0 0 -.74829-.47388l-1.65991.95825-2.33153-4.03837a1.99977 1.99977 0 0 0 -1.73206-1h-2.06042a1.99977 1.99977 0 0 0 -1.73206 1l-2.51459 4.35547a1 1 0 0 0 .366 1.366l1.73194.99987a1 1 0 0 0 1.366-.36609zm12.52051 13.68653-2.4267-4.20337a1 1 0 0 0 -1.366-.366l-1.73181 1a.99992.99992 0 0 0 -.366 1.366l1.90613 3.30151h-3.53613v-2.04565a.50005.50005 0 0 0 -.78461-.41114l-5.84381 4.04566a.5.5 0 0 0 0 .82226l5.84381 4.04566a.50005.50005 0 0 0 .78461-.41114v-2.04565h4.5769a2.00021 2.00021 0 0 0 1.7321-1l1.21143-2.09814a2 2 0 0 0 .00008-2z" fill="#fff"/></svg>