<svg clip-rule="evenodd" fill-rule="evenodd" stroke-linejoin="round" stroke-miterlimit="2" viewBox="0 0 114 100" xmlns="http://www.w3.org/2000/svg"><path d="m123.121 33.664c65.12 48.889 135.16 148.016 160.879 201.209 25.719-53.192 95.759-152.32 160.879-201.21 46.987-35.274 123.121-62.569 123.121 24.284 0 17.346-9.945 145.713-15.778 166.555-20.275 72.453-94.155 90.933-159.875 79.748 114.875 19.55 144.097 84.31 80.986 149.07-119.86 122.992-172.272-30.859-185.702-70.281-2.462-7.227-3.614-10.608-3.631-7.733-.017-2.875-1.169.506-3.631 7.733-13.43 39.422-65.842 193.273-185.702 70.281-63.111-64.76-33.89-129.52 80.986-149.071-65.72 11.185-139.6-7.295-159.875-79.748-5.833-20.842-15.778-149.21-15.778-166.555 0-86.852 76.135-59.558 123.121-24.282z" fill="#aeaeae" fill-rule="nonzero" transform="matrix(.199953 0 0 .199953 -0 -.000012)"/></svg>