<svg clip-rule="evenodd" fill-rule="evenodd" stroke-linejoin="round" stroke-miterlimit="2" viewBox="0 0 417 421" xmlns="http://www.w3.org/2000/svg"><path d="m100 50.803c0-27.614-22.386-49.999-50-49.999s-50 22.385-50 49.999c0 24.957 18.284 45.642 42.188 49.393v-34.94h-12.696v-14.453h12.696v-11.015c0-12.532 7.464-19.453 18.885-19.453 5.471 0 11.193.976 11.193.976v12.305h-6.305c-6.211 0-8.148 3.854-8.148 7.808v9.379h13.867l-2.217 14.453h-11.65v34.94c23.903-3.751 42.187-24.436 42.187-49.393z" fill="#b0aead" fill-rule="nonzero" transform="matrix(4.16667 0 0 4.16667 0 .00125)"/></svg>