<svg clip-rule="evenodd" fill-rule="evenodd" stroke-linejoin="round" stroke-miterlimit="1.41421" viewBox="0 0 100 100" xmlns="http://www.w3.org/2000/svg"><path d="m120 0c66.23 0 120 53.77 120 120s-53.77 120-120 120-120-53.77-120-120 53.77-120 120-120zm-19.957 144.407 55.642-50.212c2.442-2.167-.534-3.224-3.776-1.258l-68.673 43.325-29.663-9.259c-6.405-1.961-6.451-6.363 1.439-9.528l115.59-44.571c5.279-2.397 10.374 1.268 8.359 9.349l-19.685 92.763c-1.375 6.591-5.357 8.168-10.876 5.123l-29.986-22.154-14.414 14.015c-1.674 1.628-3 3-6 3l2.042-30.589-.002-.001.002-.002v-.001z" fill="#aeaeae" transform="scale(.416667)"/></svg>