<svg clip-rule="evenodd" fill-rule="evenodd" stroke-linejoin="round" stroke-miterlimit="1.41421" viewBox="0 0 100 100" xmlns="http://www.w3.org/2000/svg"><path d="m12.142 6.776c-.913.925-1.636 2.02-2.127 3.224h-1.996c1.065-1.42 2.488-2.533 4.123-3.224zm-5.301 5.224h2.558c-.212.987-.336 1.991-.372 3h-2.976c.104-1.035.371-2.048.79-3zm0 8c-.419-.952-.686-1.965-.79-3h2.976c.036 1.009.16 2.013.372 3zm1.178 2h1.996c.491 1.204 1.214 2.299 2.127 3.224-1.635-.691-3.058-1.804-4.123-3.224zm6.981 3.06c-1.159-.79-2.119-1.837-2.805-3.06h2.805zm0-5.06h-3.565c-.24-.983-.378-1.988-.412-3h3.977zm0-5h-3.977c.034-1.012.172-2.017.412-3h3.565zm0-5h-2.805c.686-1.223 1.646-2.27 2.805-3.06zm8.981 0h-1.996c-.491-1.204-1.214-2.299-2.128-3.224 1.635.691 3.059 1.804 4.124 3.224zm-6.981-3.06c1.158.79 2.119 1.837 2.805 3.06h-2.805zm0 5.06h3.565c.24.983.378 1.988.412 3h-3.977zm0 5h3.977c-.034 1.012-.172 2.017-.412 3h-3.565zm0 8.06v-3.06h2.805c-.686 1.223-1.647 2.27-2.805 3.06zm2.857.164c.914-.925 1.637-2.02 2.128-3.224h1.996c-1.065 1.42-2.489 2.533-4.124 3.224zm5.302-5.224h-2.558c.212-.987.336-1.991.372-3h2.976c-.104 1.035-.371 2.048-.79 3zm-2.186-5c-.036-1.009-.16-2.013-.372-3h2.558c.419.952.686 1.965.79 3zm5.027 1c0-6.583-5.417-12-12-12s-12 5.417-12 12 5.417 12 12 12 12-5.417 12-12z" fill="#aeaeae" fill-rule="nonzero" transform="matrix(4.16667 0 0 4.16667 -16.6667 -16.6667)"/></svg>