<svg clip-rule="evenodd" fill-rule="evenodd" stroke-linejoin="round" stroke-miterlimit="1.41421" viewBox="0 0 26 18" xmlns="http://www.w3.org/2000/svg"><path d="m28.24 9.811c-.293-1.105-1.155-1.973-2.258-2.274-1.993-.537-9.982-.537-9.982-.537s-7.989 0-9.982.537c-1.103.301-1.965 1.169-2.258 2.274-.369 2.042-.547 4.114-.534 6.189-.013 2.075.165 4.147.534 6.189.293 1.105 1.155 1.973 2.258 2.274 1.993.537 9.982.537 9.982.537s7.989 0 9.982-.537c1.103-.301 1.965-1.169 2.258-2.274.369-2.042.547-4.114.534-6.189.013-2.075-.165-4.147-.534-6.189zm-14.853 9.988v-7.598l6.678 3.799z" fill="#aeaeae" fill-rule="nonzero" transform="translate(-3.22513 -7)"/></svg>