<svg clip-rule="evenodd" fill-rule="evenodd" stroke-linejoin="round" stroke-miterlimit="1.41421" viewBox="0 0 32 21" xmlns="http://www.w3.org/2000/svg"><path d="m25.986 14c-.784 0-1.561.154-2.286.455l-1.607-2.571 1.202-3.209.283.077c.073.02.149.03.224.03.414 0 .771-.302.839-.71l.18-1.082c.008-.046.012-.093.012-.14 0-.466-.384-.85-.851-.85h-4.145c-.467 0-.851.384-.851.85 0 .383.258.72.627.821l1.744.476-1.068 2.853h-8.966l.603-1.658c.04-.11.06-.225.06-.342 0-.487-.355-.906-.836-.986l-3-.5c-.054-.009-.109-.014-.164-.014-.548 0-1 .451-1 1 0 .487.356.906.836.986l1.814.303-1.569 4.314c-.359-.067-.723-.1-1.089-.1-3.296 0-6.008 2.712-6.008 6.008s2.712 6.008 6.008 6.008 6.008-2.712 6.008-6.008c0-2.159-1.163-4.158-3.04-5.224l.379-1.042 6.954 6.962c.006.005.013.007.019.012.083.08.18.144.285.19.023.01.045.017.069.026.107.041.22.063.334.065h2.091c.487 2.872 2.999 4.994 5.912 4.994 3.29 0 5.997-2.707 5.997-5.997s-2.707-5.997-5.997-5.997c-.001 0-.002 0-.003 0zm-15 6c0 2.194-1.805 4-4 4-2.194 0-4-1.806-4-4s1.806-4 4-4c.129 0 .251.026.377.038l-1.316 3.62c-.041.11-.061.227-.061.344 0 .549.451 1 .999 1 .421 0 .798-.265.941-.66l1.322-3.636c1.086.743 1.737 1.978 1.738 3.294zm6.609-1.807-5.188-5.193h7.133zm2.482.807h-.648l1.781-4.756.798 1.277c-1.021.905-1.703 2.133-1.931 3.479zm3.014-1.745 1.091 1.745h-2.054c.168-.654.5-1.254.963-1.745zm2.895 6.745c-1.813-.005-3.406-1.244-3.858-3h3.859c.548 0 .999-.451.999-1 0-.187-.052-.371-.152-.53l-2.042-3.268c.385-.128.788-.196 1.194-.202 2.195 0 4 1.806 4 4s-1.805 4-4 4z" fill="#30364b" fill-rule="nonzero" transform="translate(-.970351 -6)"/></svg>