<svg clip-rule="evenodd" fill-rule="evenodd" stroke-linejoin="round" stroke-miterlimit="1.41421" viewBox="0 0 24 24" xmlns="http://www.w3.org/2000/svg"><path d="m28 8c-.006-2.192-1.808-3.994-4-4h-16c-2.192.006-3.994 1.808-4 4v19c0 .549.451 1 1 1h2c.549 0 1-.451 1-1v-1h16v1c0 .549.451 1 1 1h2c.549 0 1-.451 1-1zm-16-1.5c0-.274.226-.5.5-.5h7c.274 0 .5.226.5.5v1c0 .274-.226.5-.5.5h-7c-.274 0-.5-.226-.5-.5zm-2 16c0 .274-.226.5-.5.5h-3c-.274 0-.5-.226-.5-.5v-1c0-.274.226-.5.5-.5h3c.274 0 .5.226.5.5zm16 0c0 .274-.226.5-.5.5h-3c-.274 0-.5-.226-.5-.5v-1c0-.274.226-.5.5-.5h3c.274 0 .5.226.5.5zm0-6c-.018.608-.357 1.162-.889 1.455-2.901 1.129-6.001 1.655-9.111 1.545-3.11.11-6.211-.416-9.111-1.545-.532-.293-.871-.847-.889-1.455v-5.5c0-.549.451-1 1-1h18c.549 0 1 .451 1 1z" fill="#30364b" fill-rule="nonzero" transform="translate(-4 -4)"/></svg>