<svg clip-rule="evenodd" fill-rule="evenodd" stroke-linejoin="round" stroke-miterlimit="1.41421" viewBox="0 0 18 25" xmlns="http://www.w3.org/2000/svg"><path d="m10.379 26h2.9l-1.153 2.429c-.165.348-.518.571-.903.571h-2.993c-.274 0-.5-.226-.5-.5 0-.146.064-.285.175-.38zm10.824 0h-2.9l1.153 2.429c.165.348.517.571.903.571h2.992c.274 0 .5-.226.5-.5 0-.146-.064-.285-.174-.38zm3.797-17v13c0 1.097-.903 2-2 2h-14c-1.097 0-2-.903-2-2v-13c.008-2.74 2.26-4.992 5-5h8c2.74.008 4.992 2.26 5 5zm-12 8.5c0-.274-.226-.5-.5-.5h-3c-.274 0-.5.226-.5.5v1c0 .274.226.5.5.5h3c.274 0 .5-.226.5-.5zm10 0c0-.274-.226-.5-.5-.5h-3c-.274 0-.5.226-.5.5v1c0 .274.226.5.5.5h3c.274 0 .5-.226.5-.5zm0-8.5c-.005-1.644-1.356-2.995-3-3h-8c-1.644.005-2.995 1.356-3 3v3c.002.548.452.998 1 1h12c.548-.002.998-.452 1-1z" fill="#30364b" fill-rule="nonzero" transform="translate(-7 -4)"/></svg>