<svg clip-rule="evenodd" fill-rule="evenodd" stroke-linejoin="round" stroke-miterlimit="1.41421" viewBox="0 0 16 28" xmlns="http://www.w3.org/2000/svg"><path d="m9.189 4.309c-.321-.445-.219-1.075.225-1.397l.476-.344c.511-.37 1.126-.569 1.757-.568h8.706c.63-.001 1.246.198 1.756.568l.477.344c.26.188.414.49.414.811 0 .548-.451 1-1 1-.21 0-.415-.067-.586-.19l-.476-.344c-.17-.123-.375-.19-.585-.189h-.353v2.08c-.331-.051-.665-.077-1-.08h-1v-2h-4v2h-1c-.335.003-.669.029-1 .08v-2.08h-.353c-.21 0-.416.066-.586.189l-.475.344c-.445.321-1.075.22-1.397-.224zm-.284 23.811c-.111.095-.175.234-.175.38 0 .274.226.5.5.5h2.993c.385 0 .738-.223.903-.571l1.153-2.429h-2.9zm11.298-2.12h-2.9l1.153 2.429c.165.348.517.571.903.571h2.992c.274 0 .5-.226.5-.5 0-.146-.064-.285-.174-.38zm3.797-13v9c0 1.097-.903 2-2 2h-12c-1.097 0-2-.903-2-2v-9c.008-2.74 2.26-4.992 5-5h6c2.74.008 4.992 2.26 5 5zm-10 6.5c0-.274-.226-.5-.5-.5h-3c-.274 0-.5.226-.5.5v1c0 .274.226.5.5.5h3c.274 0 .5-.226.5-.5zm8 0c0-.274-.226-.5-.5-.5h-3c-.274 0-.5.226-.5.5v1c0 .274.226.5.5.5h3c.274 0 .5-.226.5-.5zm0-6.5c-.005-1.644-1.356-2.995-3-3h-6c-1.644.005-2.995 1.356-3 3v2c.002.548.452.998 1 1h10c.548-.002.998-.452 1-1z" fill="#30364b" fill-rule="nonzero" transform="translate(-8 -1.99999)"/></svg>