<svg clip-rule="evenodd" fill-rule="evenodd" stroke-linejoin="round" stroke-miterlimit="1.41421" viewBox="0 0 24 30" xmlns="http://www.w3.org/2000/svg"><g fill="#30364b" fill-rule="nonzero"><path d="m28 8c-.006-2.192-1.808-3.994-4-4h-16c-2.192.006-3.994 1.808-4 4v19c0 .549.451 1 1 1h2c.549 0 1-.451 1-1v-1h16v1c0 .549.451 1 1 1h2c.549 0 1-.451 1-1zm-16-1.5c0-.274.226-.5.5-.5h7c.274 0 .5.226.5.5v1c0 .274-.226.5-.5.5h-7c-.274 0-.5-.226-.5-.5zm-2 16c0 .274-.226.5-.5.5h-3c-.274 0-.5-.226-.5-.5v-1c0-.274.226-.5.5-.5h3c.274 0 .5.226.5.5zm16 0c0 .274-.226.5-.5.5h-3c-.274 0-.5-.226-.5-.5v-1c0-.274.226-.5.5-.5h3c.274 0 .5.226.5.5zm0-6c-.018.608-.357 1.162-.889 1.455-2.901 1.129-6.001 1.655-9.111 1.545-3.11.11-6.211-.416-9.111-1.545-.532-.293-.871-.847-.889-1.455v-5.5c0-.549.451-1 1-1h18c.549 0 1 .451 1 1z" transform="translate(-4 1.99547)"/><path d="m9.189 4.309c-.321-.445-.219-1.075.225-1.397l.476-.344c.511-.37 1.126-.569 1.757-.568h8.706c.63-.001 1.246.198 1.756.568l.477.344c.26.188.414.49.414.811 0 .548-.451 1-1 1-.21 0-.415-.067-.586-.19l-.476-.344c-.17-.123-.375-.19-.585-.189h-.353v2.08c-.331-.051-.665-.077-1-.08h-1v-2h-4v2h-1c-.335.003-.669.029-1 .08v-2.08h-.353c-.21 0-.416.066-.586.189l-.475.344c-.445.321-1.075.22-1.397-.224z" transform="translate(-4 -2)"/></g></svg>